<?xml version="1.0" encoding="utf-8"?>
<!-- Generator: Adobe Illustrator 16.0.0, SVG Export Plug-In . SVG Version: 6.00 Build 0)  -->
<!DOCTYPE svg PUBLIC "-//W3C//DTD SVG 1.1//EN" "http://www.w3.org/Graphics/SVG/1.1/DTD/svg11.dtd">
<svg version="1.1" id="Layer_1" xmlns="http://www.w3.org/2000/svg" xmlns:xlink="http://www.w3.org/1999/xlink" x="0px" y="0px"
	 width="683.547px" height="683.573px" viewBox="0 0 683.547 683.573" enable-background="new 0 0 683.547 683.573"
	 xml:space="preserve">
<g>
	<circle fill="#4B297F" cx="341.773" cy="341.786" r="336.125"/>
	<g>
		<g>
			<path fill="#FEFEFE" d="M72.97,375.345l-0.265-1.422l13.135-2.443l0.291,1.568l-1.814,2.752c1.439,1.268,2.628,2.84,3.565,4.717
				c0.938,1.877,1.637,4.043,2.094,6.498c1.14,6.131-0.257,11.574-4.19,16.332s-9.562,7.818-16.883,9.18
				c-3.526,0.656-6.927,0.773-10.201,0.35c-3.274-0.422-6.321-1.377-9.14-2.867c-2.843-1.484-5.238-3.504-7.186-6.061
				c-1.948-2.557-3.198-5.318-3.75-8.287c-0.375-2.018-0.406-3.957-0.093-5.814s0.997-3.777,2.052-5.76l-2.94-2.02l-0.203-1.096
				l12.404-2.307l0.292,1.568c-3.752,1.756-6.44,3.941-8.066,6.559c-1.626,2.619-2.137,5.557-1.53,8.816
				c0.846,4.547,3.489,7.473,7.931,8.771c4.441,1.301,11.268,1.094,20.479-0.619c4.351-0.811,7.691-1.639,10.022-2.488
				c2.331-0.848,4.177-1.877,5.535-3.086c1.492-1.309,2.563-2.918,3.214-4.826c0.651-1.906,0.791-3.857,0.42-5.854
				c-0.66-3.551-2.274-6.357-4.842-8.422S77.29,375.774,72.97,375.345z"/>
			<path fill="#FEFEFE" d="M86.377,327.714c-0.181,3.357-0.97,6.268-2.365,8.729c-1.396,2.463-3.497,4.67-6.303,6.623
				c-2.522,1.746-5.41,3.039-8.664,3.877c-3.253,0.84-6.646,1.164-10.179,0.975c-3.409-0.184-6.558-0.842-9.445-1.975
				c-2.887-1.135-5.476-2.74-7.768-4.818c-2.621-2.395-4.528-4.924-5.723-7.586c-1.195-2.664-1.709-5.539-1.543-8.623
				c0.16-2.963,0.898-5.639,2.217-8.031c1.317-2.393,3.243-4.559,5.775-6.504c2.636-2.01,5.584-3.498,8.844-4.461
				c3.261-0.963,6.706-1.348,10.338-1.152c3.533,0.191,6.876,0.91,10.029,2.156c3.154,1.246,5.899,2.936,8.237,5.066
				c2.435,2.186,4.178,4.545,5.23,7.076C86.112,321.599,86.551,324.481,86.377,327.714z M36.278,325.017
				c-0.258,4.785,1.52,8.258,5.33,10.418c3.812,2.158,10.876,3.518,21.195,4.072c7.044,0.379,12.359-0.41,15.947-2.369
				c3.589-1.959,5.501-5.135,5.737-9.525c0.235-4.365-1.332-7.709-4.702-10.031c-3.369-2.322-8.613-3.674-15.731-4.057
				c-10.393-0.561-17.556,0.018-21.489,1.736C38.632,316.979,36.536,320.231,36.278,325.017z"/>
			<path fill="#FEFEFE" d="M89.503,286.028l-1.798-0.59l1.714-5.219l-43.857-14.408l-1.715,5.219l-1.798-0.592l4.702-14.313
				l38.396,1.52L53.55,235.431l4.587-13.961l1.798,0.59l-1.83,5.57l43.858,14.408l1.83-5.57l1.798,0.592l-5.814,17.697l-1.798-0.59
				l1.749-5.324l-43.223-14.199l-0.093,0.281l40.516,28.506l-0.591,1.797l-49.226-1.992l-0.186,0.564l43.223,14.199l1.761-5.359
				l1.798,0.592L89.503,286.028z"/>
			<path fill="#FEFEFE" d="M115.45,219.534l-0.681,1.105l-11.185-6.891l0.759-1.232c3.772,0.93,7.239,0.863,10.398-0.197
				c3.16-1.061,5.583-2.959,7.27-5.697c1.882-3.055,2.512-6.219,1.89-9.494c-0.622-3.273-2.31-5.76-5.064-7.457
				c-3.237-1.996-7.815-0.428-13.731,4.703c-0.459,0.414-0.808,0.723-1.048,0.922c-5.075,4.371-9.076,6.891-12.001,7.557
				c-2.925,0.668-5.946,0.041-9.063-1.879c-3.496-2.154-5.638-5.057-6.424-8.709s-0.044-7.32,2.227-11.008
				c1.688-2.736,4.017-4.832,6.986-6.287c0.565-0.262,0.873-0.436,0.925-0.52c0.058-0.139,0.089-0.271,0.097-0.398
				c0.007-0.127-0.016-0.264-0.066-0.412l-0.773-2.176l0.837-1.357l9.73,5.994l-0.72,1.17c-3.627-0.811-6.757-0.742-9.39,0.207
				c-2.634,0.949-4.781,2.771-6.442,5.467c-1.506,2.445-2.052,4.949-1.639,7.514s1.659,4.486,3.738,5.768
				c1.727,1.064,3.536,1.293,5.43,0.688c1.893-0.605,4.126-2.137,6.699-4.59c0.365-0.357,0.93-0.895,1.693-1.615
				c4.316-4.082,7.562-6.543,9.735-7.383c1.931-0.729,3.921-0.963,5.969-0.703c2.049,0.26,4.084,1.012,6.106,2.258
				c4.402,2.713,7.107,6.174,8.116,10.385s0.15,8.527-2.574,12.949c-1.908,3.096-4.504,5.406-7.788,6.928
				c-0.536,0.252-0.823,0.408-0.862,0.471s-0.056,0.162-0.052,0.295c0.005,0.135,0.027,0.285,0.067,0.455L115.45,219.534z"/>
			<path fill="#FEFEFE" d="M138.587,182.735l-1.38-1.295l4.063-4.328l-24.308-46.169l1.295-1.381l46.832,22.167l3.581-3.815
				l1.38,1.296l-13.002,13.854l-1.38-1.295l4.215-4.493l-15.118-7.316l-9.878,10.528l8.059,14.838l4.317-4.6l1.38,1.295
				L138.587,182.735z M133.747,158.448l8.938-9.525l-18.93-9.111L133.747,158.448z"/>
			<path fill="#FEFEFE" d="M190.515,133.74l-1.053-1.572l5.242-3.51L169.041,90.33c-0.281,0.159-0.569,0.329-0.863,0.511
				c-0.295,0.183-0.72,0.459-1.275,0.831c-2.919,1.955-4.599,4.159-5.04,6.613c-0.44,2.454,0.28,5.954,2.162,10.499l-1.388,0.929
				l-7.497-12.397l32.007-21.432l8.515,11.716l-1.387,0.929c-3.102-3.431-5.957-5.427-8.565-5.988
				c-2.608-0.561-5.485,0.212-8.631,2.318c-0.534,0.358-0.921,0.625-1.161,0.8c-0.239,0.176-0.445,0.336-0.616,0.48l25.633,38.349
				l5.119-3.428l1.053,1.573L190.515,133.74z"/>
			<path fill="#FEFEFE" d="M231.65,109.306l-1.203,0.49l-4.955-12.167l1.341-0.546c2.495,2.979,5.33,4.973,8.507,5.982
				c3.176,1.011,6.252,0.909,9.231-0.304c3.322-1.353,5.699-3.534,7.131-6.544c1.432-3.01,1.539-6.012,0.318-9.009
				c-1.434-3.522-6.054-4.961-13.857-4.316c-0.615,0.064-1.079,0.106-1.392,0.126c-6.676,0.529-11.393,0.199-14.146-0.991
				c-2.755-1.188-4.822-3.479-6.203-6.87c-1.549-3.803-1.563-7.411-0.04-10.822c1.521-3.411,4.288-5.934,8.298-7.566
				c2.979-1.213,6.096-1.528,9.351-0.947c0.611,0.122,0.962,0.164,1.054,0.126c0.128-0.079,0.232-0.167,0.313-0.265
				c0.081-0.098,0.144-0.222,0.189-0.371l0.662-2.213l1.478-0.602l4.311,10.585l-1.271,0.518c-2.447-2.796-5.014-4.588-7.699-5.378
				s-5.495-0.588-8.428,0.606c-2.658,1.083-4.578,2.781-5.759,5.094c-1.182,2.314-1.312,4.601-0.391,6.863
				c0.765,1.877,2.089,3.131,3.976,3.76c1.885,0.629,4.591,0.714,8.117,0.253c0.504-0.072,1.277-0.173,2.32-0.304
				c5.894-0.744,9.966-0.813,12.216-0.207c1.988,0.553,3.732,1.539,5.231,2.958c1.5,1.42,2.697,3.229,3.594,5.429
				c1.949,4.789,2.088,9.18,0.416,13.173c-1.674,3.994-4.914,6.97-9.727,8.929c-3.368,1.372-6.826,1.702-10.375,0.99
				c-0.581-0.114-0.905-0.157-0.974-0.129c-0.069,0.028-0.141,0.097-0.216,0.208c-0.075,0.111-0.147,0.247-0.216,0.407
				L231.65,109.306z"/>
			<path fill="#FEFEFE" d="M312.999,73.2l-1.645-35.392l-5.855,0.272l-0.088-1.891l18.83-0.875l0.088,1.891l-5.783,0.269
				l1.623,34.947c0.18,3.859,1.217,6.753,3.115,8.685c1.896,1.932,4.564,2.818,8,2.659c4.002-0.186,6.984-1.569,8.945-4.152
				c1.961-2.582,2.828-6.272,2.605-11.07l-1.49-32.128l-5.709,0.265l-0.088-1.891l13.678-0.635l0.088,1.89l-5.709,0.265l1.502,32.35
				c0.268,5.738-0.9,10.061-3.502,12.969c-2.602,2.91-6.719,4.494-12.354,4.756c-4.844,0.225-8.713-0.834-11.609-3.178
				C314.747,80.863,313.2,77.527,312.999,73.2z"/>
			<path fill="#FEFEFE" d="M371.336,85.518l0.375-1.855l5.492,1.109l9.137-45.251l-5.42-1.094l0.373-1.855l14.223,2.871
				l13.812,39.235l6.695-33.165l-5.529-1.116l0.375-1.855l13.568,2.739l-0.375,1.855l-5.674-1.146l-9.752,48.307l-1.929-0.389
				l-18.217-53.043l-8.959,44.377l5.529,1.116l-0.373,1.855L371.336,85.518z"/>
			<path fill="#FEFEFE" d="M428.703,99.64l0.711-1.754l5.848,2.368l17.328-42.788l-5.848-2.368l0.711-1.754l18.883,7.648
				l-0.709,1.754l-5.986-2.424l-17.328,42.788l5.984,2.424l-0.711,1.754L428.703,99.64z"/>
			<path fill="#FEFEFE" d="M482.792,128.361l13.461-50.225l-4.605-3.061l1.049-1.576l15.885,10.557l-1.047,1.576l-4.883-3.245
				l-9.986,37.554l30.57-23.875l-5.719-3.8l1.049-1.576l11.898,7.908l-1.047,1.576l-4.359-2.896l-40.875,32.006L482.792,128.361z"/>
			<path fill="#FEFEFE" d="M515.114,151.024l1.375-1.3l3.873,4.101l33.563-31.696l-3.873-4.101l1.377-1.299l25.453,26.952
				l-8.715,8.23l-1.096-1.16c2.379-3.029,3.48-5.701,3.301-8.018c-0.178-2.314-1.787-5.082-4.828-8.302l-6.422-6.799l-15.377,14.523
				l1.045,1.106c2.225,2.355,4.23,3.625,6.02,3.808s3.83-0.639,6.121-2.464l1.07,1.134l-13.65,12.893l-1.096-1.16
				c2.309-2.419,3.418-4.641,3.326-6.665c-0.092-2.023-1.4-4.375-3.932-7.055l-0.281-0.297l-16.809,15.873l7.262,7.69
				c2.838,3.002,5.564,4.604,8.186,4.801c2.619,0.197,5.959-0.959,10.021-3.467l1.146,1.213l-10.869,9.193L515.114,151.024z"/>
			<path fill="#FEFEFE" d="M551.741,188.7l3.084,5.074l39.45-23.971l-2.928-4.82l1.617-0.984l10.965,18.047
				c2.89,4.756,4.292,8.926,4.212,12.508c-0.082,3.58-1.613,6.277-4.595,8.088c-2.959,1.799-6.047,2.09-9.262,0.873
				c-3.213-1.217-6.137-3.775-8.768-7.678l-0.508,0.309c1.338,3.443,1.785,6.631,1.34,9.564c-0.447,2.936-1.734,5.295-3.863,7.08
				c-1.108,0.936-2.819,2.133-5.13,3.596c-2.311,1.461-3.797,2.625-4.457,3.49c-0.596,0.736-0.91,1.471-0.943,2.201
				c-0.033,0.729,0.205,1.518,0.719,2.363c0.309,0.508,0.699,0.994,1.17,1.461c0.473,0.465,1.025,0.912,1.66,1.336l-1.617,0.984
				c-1.088-0.789-2.049-1.609-2.885-2.461c-0.836-0.854-1.523-1.723-2.064-2.611c-1.645-2.705-1.834-5.354-0.572-7.945
				c1.264-2.59,4.135-5.393,8.615-8.404c0.105-0.064,0.248-0.164,0.424-0.301c3.242-2.145,5.153-4.217,5.731-6.219
				c0.424-1.445,0.508-2.951,0.252-4.518c-0.258-1.566-0.828-3.078-1.714-4.537l-2.293-3.773l-20.742,12.602l3.006,4.947
				l-1.617,0.984l-9.904-16.303L551.741,188.7z M581.061,186.431l2.292,3.773c2.66,4.377,5.082,6.922,7.27,7.633
				c2.188,0.713,4.943,0.059,8.27-1.963c3.113-1.893,4.883-3.814,5.307-5.764c0.424-1.951-0.48-4.768-2.717-8.445l-3.391-5.582
				L581.061,186.431z"/>
			<path fill="#FEFEFE" d="M578.756,241.696l-0.438-1.225l12.366-4.426l0.488,1.363c-3.084,2.365-5.197,5.111-6.344,8.24
				c-1.146,3.131-1.176,6.209-0.094,9.236c1.209,3.379,3.287,5.848,6.232,7.408s5.939,1.795,8.986,0.705
				c3.58-1.281,5.217-5.834,4.908-13.66c-0.037-0.617-0.059-1.082-0.066-1.395c-0.24-6.693,0.293-11.391,1.599-14.09
				c1.305-2.701,3.682-4.67,7.131-5.902c3.865-1.385,7.471-1.242,10.813,0.426c3.344,1.668,5.744,4.539,7.203,8.615
				c1.084,3.027,1.264,6.156,0.543,9.383c-0.148,0.605-0.205,0.953-0.172,1.047c0.074,0.133,0.156,0.24,0.252,0.324
				c0.094,0.084,0.215,0.152,0.363,0.205l2.182,0.756l0.537,1.504l-10.762,3.85l-0.463-1.291c2.9-2.326,4.801-4.813,5.705-7.463
				c0.904-2.648,0.824-5.463-0.242-8.445c-0.967-2.701-2.582-4.691-4.842-5.973c-2.262-1.279-4.541-1.508-6.84-0.686
				c-1.908,0.684-3.219,1.953-3.928,3.811c-0.711,1.855-0.912,4.557-0.604,8.098c0.051,0.508,0.117,1.285,0.203,2.332
				c0.49,5.92,0.385,9.992-0.318,12.215c-0.639,1.961-1.699,3.662-3.182,5.098c-1.482,1.438-3.342,2.557-5.577,3.357
				c-4.867,1.742-9.262,1.691-13.178-0.152c-3.918-1.844-6.752-5.209-8.504-10.102c-1.224-3.424-1.405-6.893-0.541-10.408
				c0.139-0.576,0.195-0.898,0.17-0.967c-0.025-0.07-0.092-0.145-0.197-0.225c-0.107-0.08-0.24-0.158-0.398-0.232L578.756,241.696z"
				/>
			<path fill="#FEFEFE" d="M593.302,287.784l1.865-0.322l1.07,6.217l45.493-7.832l-1.07-6.217l1.865-0.32l3.457,20.078l-1.865,0.32
				l-1.096-6.363l-45.493,7.832l1.096,6.363l-1.865,0.322L593.302,287.784z"/>
			<path fill="#FEFEFE" d="M598.931,333.618l1.893,0.031l-0.102,6.307l46.12,0.748c0.029-0.32,0.053-0.654,0.072-1
				c0.018-0.348,0.031-0.854,0.043-1.521c0.057-3.514-0.799-6.148-2.563-7.91c-1.766-1.76-5.053-3.162-9.861-4.205l0.027-1.67
				l14.461,0.904l-0.625,38.514l-14.48,0.32l0.027-1.668c4.588-0.594,7.855-1.803,9.803-3.627c1.945-1.824,2.951-4.629,3.012-8.414
				c0.01-0.643,0.012-1.113,0.004-1.41s-0.021-0.557-0.043-0.779l-46.118-0.785l-0.1,6.158l-1.893-0.029L598.931,333.618z"/>
			<path fill="#FEFEFE" d="M594.105,391.794l1.842,0.436l-1.498,6.32l21.03,4.986l27.227-8.418l1.258-5.309l1.842,0.438
				l-4.666,19.678l-1.842-0.436l1.473-6.211l-24.213,7.303l18.57,16.492l1.721-7.258l1.842,0.438l-3.596,15.164l-1.842-0.436
				l1.326-5.598l-20.936-18.426l-20.958-4.971l-1.5,6.318l-1.84-0.436L594.105,391.794z"/>
		</g>
	</g>
	<circle fill="#115DA5" cx="341.774" cy="341.786" r="236.21"/>
	<path fill="#FEFEFE" d="M128.858,444.194c38.147,79.17,119.152,133.801,212.916,133.801c93.474,0,174.266-54.291,212.561-133.063
		l80.941,46.488c-54.5,106.691-165.47,179.74-293.502,179.74c-128.83,0-240.385-73.961-294.517-181.742L128.858,444.194z"/>
	<circle fill="#4B297F" cx="105.564" cy="505.13" r="14.468"/>
	<circle fill="#4B297F" cx="572.706" cy="505.13" r="14.467"/>
	<path fill="#FFFFFF" d="M269.276,208.161c0,0-142.5,28-142.5,136c0,100.033,142.5,132,142.5,132s-89-43.5-89-130
		C180.276,244.642,269.276,208.161,269.276,208.161z"/>
	<path fill="#FFFFFF" d="M415.74,208.161c0,0,142.499,28,142.499,136c0,100.033-142.499,132-142.499,132s88.999-43.5,88.999-130
		C504.739,244.642,415.74,208.161,415.74,208.161z"/>
	<path fill="#FFFFFF" d="M341.774,201.327c0,0,5.002,92,4.336,132.334s-4.842,152-4.842,152s-4.158-120.334-3.492-152
		S341.774,201.327,341.774,201.327z"/>
	<path fill="#FFFFFF" d="M316.11,208.161c0,0-61,33.166-59,135.334c1.998,102.166,59,132.666,59,132.666s-45-39.166-45-134
		C271.11,253.329,316.11,208.161,316.11,208.161z"/>
	<path fill="#FFFFFF" d="M293.276,212.161c0,0-102,28.5-102,134c0,95.834,102,126,102,126s-86.833-41.666-86.833-124.166
		C206.443,238.661,293.276,212.161,293.276,212.161z"/>
	<path fill="#FFFFFF" d="M364.2,208.161c0,0,61.001,33.166,59.001,135.334c-2,102.166-59.001,132.666-59.001,132.666
		s45.001-39.166,45.001-134C409.201,253.329,364.2,208.161,364.2,208.161z"/>
	<path fill="#FFFFFF" d="M391.336,212.161c0,0,102,28.5,102,134c0,95.834-102,126-102,126s86.835-41.666,86.835-124.166
		C478.171,238.661,391.336,212.161,391.336,212.161z"/>
	<g>
		<g>
			<path fill="#08218D" d="M128.662,555.788l1.158-1.234l4.118,3.859l28.25-30.133l-4.117-3.861l1.158-1.234l13.298,12.467
				l-1.158,1.236l-4.215-3.951l-28.25,30.133l4.215,3.951l-1.158,1.234L128.662,555.788z"/>
			<path fill="#08218D" d="M155.489,579.948l-0.945-0.676l6.849-9.553l1.053,0.754c-1.065,3.309-1.223,6.406-0.473,9.293
				c0.749,2.887,2.294,5.168,4.633,6.844c2.607,1.871,5.393,2.631,8.354,2.279s5.286-1.703,6.973-4.055
				c1.982-2.766,0.869-6.949-3.341-12.551c-0.342-0.436-0.595-0.766-0.759-0.992c-3.584-4.803-5.583-8.531-5.996-11.184
				c-0.414-2.652,0.334-5.309,2.243-7.973c2.141-2.984,4.865-4.715,8.174-5.189s6.537,0.416,9.686,2.674
				c2.339,1.676,4.063,3.887,5.176,6.629c0.199,0.52,0.335,0.805,0.407,0.857c0.12,0.059,0.236,0.096,0.349,0.109
				c0.113,0.016,0.236,0.004,0.372-0.033l1.99-0.555l1.16,0.832l-5.958,8.313l-0.999-0.717c0.95-3.186,1.084-5.984,0.4-8.393
				c-0.683-2.41-2.175-4.441-4.478-6.092c-2.087-1.496-4.288-2.141-6.603-1.932c-2.315,0.209-4.109,1.201-5.383,2.977
				c-1.057,1.475-1.374,3.076-0.951,4.803c0.423,1.729,1.649,3.818,3.679,6.268c0.295,0.348,0.74,0.885,1.337,1.611
				c3.373,4.107,5.368,7.158,5.981,9.15c0.53,1.77,0.615,3.561,0.256,5.371c-0.36,1.813-1.159,3.582-2.396,5.309
				c-2.696,3.762-5.955,5.959-9.775,6.598c-3.821,0.637-7.62-0.398-11.398-3.105c-2.645-1.896-4.544-4.357-5.697-7.383
				c-0.19-0.494-0.313-0.762-0.366-0.799c-0.054-0.039-0.141-0.061-0.26-0.064c-0.12-0.006-0.257,0.006-0.411,0.031L155.489,579.948
				z"/>
			<path fill="#08218D" d="M192.354,604.673l0.756-1.516l4.991,2.49l18.444-36.957l-4.783-2.387l0.757-1.516l16.369,8.17
				l-0.756,1.514l-5.496-2.742l-18.445,36.957l8.229,4.107c3.011,1.502,5.587,1.93,7.73,1.279c2.143-0.65,4.594-2.625,7.353-5.924
				l1.159,0.578l-6.303,10.92L192.354,604.673z"/>
			<path fill="#08218D" d="M239.493,626.646l0.462-1.629l5.111,1.449l26.692-38.301l1.629,0.461l1.643,46.33l4.504,1.277
				l-0.461,1.629l-16.357-4.635l0.463-1.629l5.303,1.502l-0.402-15.023l-12.426-3.521l-8.479,12.506l5.43,1.539l-0.461,1.631
				L239.493,626.646z M256.803,612.812l11.244,3.188l-0.543-18.791L256.803,612.812z"/>
			<path fill="#08218D" d="M297.936,641.39l0.115-1.689l4.902,0.334l2.805-41.209l-4.902-0.334l0.115-1.689l13.449,0.914
				l7.162,33.627l12.283-32.303l13.117,0.893l-0.115,1.689l-5.234-0.355l-2.803,41.209l5.234,0.355l-0.115,1.689l-16.631-1.131
				l0.115-1.689l5.002,0.34l2.764-40.613l-0.266-0.018l-15.764,41.426l-1.689-0.115l-9.146-43.121l-0.529-0.035l-2.764,40.613
				l5.035,0.342l-0.115,1.689L297.936,641.39z"/>
			<path fill="#08218D" d="M363.071,643.624l-0.232-1.676l5.264-0.729l9.059-45.797l1.678-0.23l20.115,41.766l4.637-0.641
				l0.232,1.678l-16.84,2.326l-0.232-1.678l5.459-0.754l-6.402-13.596l-12.795,1.768l-2.74,14.859l5.592-0.773l0.232,1.678
				L363.071,643.624z M373.366,624.003l11.576-1.6l-8.043-16.988L373.366,624.003z"/>
			<path fill="#08218D" d="M420.277,633.896l-0.533-1.605l4.631-1.541l-13.031-39.195l-4.634,1.541l-0.533-1.607l16.259-5.404
				c4.893-1.627,8.912-2.031,12.055-1.209c3.143,0.82,5.244,2.828,6.305,6.021c0.881,2.646,0.705,5.137-0.525,7.469
				c-1.23,2.334-3.402,4.322-6.52,5.965l0.084,0.252c3.814-0.592,7.105-0.273,9.869,0.953s4.59,3.174,5.477,5.842
				c1.236,3.717,0.734,7.068-1.504,10.053c-2.238,2.982-6.037,5.365-11.393,7.146L420.277,633.896z M423.562,607.155l4.789-1.592
				c3.467-1.152,5.629-2.596,6.486-4.33c0.859-1.732,0.689-4.398-0.508-7.998c-1.057-3.178-2.432-5.156-4.125-5.936
				c-1.693-0.781-4.357-0.568-7.992,0.641l-4.537,1.508L423.562,607.155z M424.097,608.763l6.609,19.881l5.609-1.863
				c3.529-1.174,5.713-2.658,6.549-4.453c0.838-1.795,0.639-4.551-0.596-8.27c-1.236-3.717-2.848-6.104-4.83-7.158
				c-1.984-1.055-4.752-0.992-8.301,0.188L424.097,608.763z"/>
			<path fill="#08218D" d="M468.15,616.794l-0.813-1.486l4.664-2.547l-7.768-46.033l1.486-0.811l33.616,31.92l4.109-2.242
				l0.811,1.486l-14.92,8.146l-0.813-1.486l4.838-2.643l-10.807-10.441l-11.337,6.189l2.707,14.865l4.953-2.705l0.813,1.486
				L468.15,616.794z M470.818,594.796l10.257-5.602l-13.544-13.031L470.818,594.796z"/>
			<path fill="#08218D" d="M522.512,581.909l-26.404-31.764l-3.881,3.227l-1.082-1.303l12.563-10.441
				c5.498-4.57,10.945-6.639,16.346-6.205c5.396,0.436,10.332,3.342,14.805,8.721c2.645,3.184,4.459,6.475,5.443,9.875
				c0.984,3.398,1.104,6.832,0.359,10.301c-0.434,1.973-1.283,3.867-2.551,5.684s-3.043,3.672-5.324,5.568l-13.072,10.867
				l-1.082-1.303L522.512,581.909z M501.317,545.815l26.404,31.764l3.727-3.098c1.736-1.443,3.109-2.9,4.117-4.373
				c1.008-1.471,1.639-2.918,1.896-4.342c0.346-2.074,0.049-4.189-0.893-6.344c-0.943-2.156-3.361-5.576-7.256-10.26
				c-3.426-4.123-6.094-6.891-8-8.301c-1.906-1.412-3.818-2.213-5.734-2.406c-1.701-0.143-3.422,0.15-5.164,0.879
				c-1.742,0.727-3.693,1.988-5.855,3.785L501.317,545.815z"/>
		</g>
	</g>
</g>
</svg>
