<?xml version="1.0" encoding="UTF-8"?>
<svg version="1.1" xmlns="http://www.w3.org/2000/svg" width="512" height="512">
<path d="M0 0 C1.05051595 -0.00170885 2.10103191 -0.0034177 3.18338168 -0.00517833 C6.70261564 -0.00847194 10.22165885 0.00252853 13.74087524 0.01345825 C16.26389562 0.01402239 18.78691633 0.01370575 21.30993652 0.01257324 C26.74140219 0.01211784 32.17280645 0.01778981 37.60425949 0.02904892 C45.45717324 0.04531698 53.31006377 0.05051326 61.16299255 0.0530249 C73.90446143 0.05739996 86.64590466 0.07070391 99.38735962 0.08963013 C111.76300936 0.10799383 124.13865213 0.12214794 136.51431274 0.13064575 C137.27740727 0.1311712 138.0405018 0.13169665 138.8267204 0.13223802 C142.65501879 0.13484813 146.48331723 0.13737554 150.31161571 0.13986182 C182.06100357 0.16058842 213.81035925 0.19595767 245.5597229 0.24050903 C245.5597229 5.52050903 245.5597229 10.80050903 245.5597229 16.24050903 C244.28989343 16.24289739 243.02006395 16.24528574 241.7117548 16.24774647 C211.55381715 16.30513328 181.39595911 16.37788298 151.23810783 16.46949532 C147.52443103 16.48076318 143.81075385 16.49190168 140.09707642 16.50296021 C138.98810891 16.50626573 138.98810891 16.50626573 137.85673802 16.50963803 C125.89328857 16.54498941 113.92983917 16.56986573 101.96635688 16.59085605 C89.68642693 16.61263533 77.40656462 16.64570592 65.12669224 16.68921059 C57.55221532 16.71569073 49.97782267 16.73341286 42.40330177 16.73985507 C36.59054941 16.74574343 30.77793673 16.76735815 24.96525002 16.79478455 C22.58407165 16.80357134 20.20286827 16.80728603 17.82167435 16.8055172 C14.56657956 16.80386279 11.3120674 16.82057886 8.05705261 16.84178162 C7.11831301 16.83693404 6.1795734 16.83208646 5.21238714 16.82709199 C-1.72378667 16.90147632 -8.61312518 17.63083034 -13.8777771 22.49050903 C-20.90549266 34.85928841 -18.03319278 51.21381084 -18.4402771 64.24050903 C50.1997229 64.24050903 118.8397229 64.24050903 189.5597229 64.24050903 C189.5597229 69.52050903 189.5597229 74.80050903 189.5597229 80.24050903 C120.9197229 80.24050903 52.2797229 80.24050903 -18.4402771 80.24050903 C-18.4402771 154.16050903 -18.4402771 228.08050903 -18.4402771 304.24050903 C124.1197229 304.24050903 266.6797229 304.24050903 413.5597229 304.24050903 C413.5597229 262.00050903 413.5597229 219.76050903 413.5597229 176.24050903 C418.8397229 176.24050903 424.1197229 176.24050903 429.5597229 176.24050903 C429.65236961 200.07565997 429.72372741 223.91076744 429.76697159 247.74606228 C429.78758546 258.81352816 429.81568369 269.88088002 429.86148071 280.94827271 C429.90138434 290.59606553 429.92716426 300.24377577 429.93607688 309.89164883 C429.94128563 314.99883282 429.95350377 320.10578054 429.98264313 325.21288872 C430.00986785 330.02357159 430.01815362 334.8339217 430.01215363 339.6446743 C430.01325071 341.4066626 430.02116246 343.16866246 430.0365448 344.93058395 C430.17767485 361.93528352 430.17767485 361.93528352 425.5597229 369.24050903 C425.09050415 370.05004028 424.6212854 370.85957153 424.1378479 371.69363403 C419.18518328 378.39429793 413.5355754 381.91371935 405.5597229 384.24050903 C402.51006508 384.48660469 402.51006508 384.48660469 399.21954346 384.48101807 C397.96600067 384.4837674 396.71245789 384.48651672 395.42092896 384.48934937 C394.04482935 384.48227251 392.66873073 384.47500291 391.29263306 384.46755981 C389.83363859 384.46699525 388.37464355 384.46731314 386.91564941 384.46844482 C382.96566738 384.46901758 379.01580733 384.45727571 375.0658536 384.44329691 C370.93388268 384.43077677 366.80190883 384.42961804 362.66992188 384.42724609 C354.8502492 384.4210351 347.0306326 384.40462943 339.21098459 384.38454711 C330.30654875 384.36217628 321.4021102 384.3511917 312.49765325 384.34115624 C294.18497804 384.32026286 275.87235498 384.28509428 257.5597229 384.24050903 C257.68089478 385.55245239 257.80206665 386.86439575 257.9269104 388.21609497 C258.37600798 393.08376606 258.82271809 397.9516538 259.26870728 402.8196106 C259.46206593 404.92644135 259.65607196 407.03321279 259.85073853 409.1399231 C260.13043723 412.16808966 260.407807 415.19646189 260.6847229 418.22488403 C260.77221802 419.16668518 260.85971313 420.10848633 260.94985962 421.0788269 C261.02994263 421.95943787 261.11002563 422.84004883 261.1925354 423.74734497 C261.29912476 424.90650421 261.29912476 424.90650421 261.40786743 426.08908081 C261.55228214 428.13509126 261.5597229 430.18940826 261.5597229 432.24050903 C269.4797229 432.24050903 277.3997229 432.24050903 285.5597229 432.24050903 C285.5597229 437.52050903 285.5597229 442.80050903 285.5597229 448.24050903 C227.4797229 448.24050903 169.3997229 448.24050903 109.5597229 448.24050903 C109.5597229 442.96050903 109.5597229 437.68050903 109.5597229 432.24050903 C117.4797229 432.24050903 125.3997229 432.24050903 133.5597229 432.24050903 C133.86716431 428.42552856 133.86716431 428.42552856 134.18081665 424.53347778 C134.38258819 422.03452498 134.58455009 419.53558762 134.78652954 417.03665161 C134.92539985 415.31726659 135.06407633 413.59786589 135.20254517 411.87844849 C135.40310904 409.38841543 135.6044004 406.89844202 135.80581665 404.40847778 C135.8662767 403.65592209 135.92673676 402.90336639 135.98902893 402.12800598 C136.33180162 397.89990064 136.69830039 393.67459839 137.08403015 389.45018005 C137.17333329 388.4711588 137.26263643 387.49213755 137.35464573 386.48344898 C137.45615893 385.37319371 137.45615893 385.37319371 137.5597229 384.24050903 C136.80526666 384.24419621 136.05081041 384.24788338 135.27349186 384.25168228 C116.89424325 384.340118 98.51503724 384.4062598 80.13562107 384.44775772 C71.24736948 384.46836054 62.35926013 384.4964374 53.47109985 384.54226685 C45.72186448 384.58220459 37.97273216 384.60795842 30.22339672 384.61686301 C26.12223133 384.62206606 22.02136068 384.63424715 17.92028999 384.66342926 C14.05511947 384.69070828 10.19036332 384.69892905 6.32510567 384.69293976 C4.9114252 384.69403445 3.49772997 384.70191401 2.08413315 384.71733093 C-5.99629191 384.80108734 -12.39044918 384.39150791 -19.4402771 380.24050903 C-20.24980835 379.77129028 -21.0593396 379.30207153 -21.8934021 378.81863403 C-28.60350704 373.85899125 -32.09325984 368.21800347 -34.4402771 360.24050903 C-34.69327676 357.3523829 -34.69327676 357.3523829 -34.69754601 354.28271866 C-34.7039949 353.10651844 -34.71044379 351.93031823 -34.7170881 350.71847558 C-34.7139909 349.4354152 -34.7108937 348.15235482 -34.70770264 346.83041382 C-34.71144077 345.44642697 -34.71604294 344.06244223 -34.72143328 342.67846084 C-34.73365874 338.88036999 -34.73340335 335.08236726 -34.73104453 331.28426123 C-34.73063625 327.18596383 -34.74167666 323.08769464 -34.75115967 318.9894104 C-34.76776841 310.961706 -34.77326917 302.93403097 -34.77438442 294.90631083 C-34.77533501 288.38002847 -34.77944581 281.8537558 -34.78578568 275.3274765 C-34.80339814 256.82016756 -34.8126246 238.31288181 -34.81112473 219.80556443 C-34.81104481 218.80795357 -34.8109649 217.81034271 -34.81088257 216.78250122 C-34.81080081 215.78367077 -34.81071905 214.78484032 -34.81063481 213.75574228 C-34.80982202 197.57065713 -34.82895784 181.38566508 -34.8571593 165.20060685 C-34.88589457 148.57787956 -34.89969923 131.95519766 -34.89797175 115.33244491 C-34.89730805 106.00167265 -34.90279169 96.67099798 -34.92432785 87.34024811 C-34.94254815 79.39525335 -34.94688006 71.45040039 -34.933309 63.50539377 C-34.92678348 59.45348077 -34.92664693 55.40183975 -34.9440155 51.3499527 C-34.95977007 47.63632058 -34.95685873 43.92317553 -34.93944724 40.20955512 C-34.93493724 38.23886084 -34.95001602 36.26815132 -34.96592653 34.29751611 C-34.88951229 24.43890072 -33.02171207 16.13641416 -26.1434021 8.77175903 C-18.25918202 1.68319419 -10.35106381 -0.06162034 0 0 Z M-18.4402771 320.24050903 C-20.7874722 342.86627977 -20.7874722 342.86627977 -12.6902771 364.17800903 C-7.13968213 367.70050199 -1.85074519 368.49032359 4.64286613 368.49498463 C5.32359615 368.4981911 6.00432617 368.50139758 6.70568436 368.50470123 C8.97937287 368.5129813 11.25279659 368.50708403 13.52648926 368.50120544 C15.17603832 368.50422704 16.82558597 368.50811656 18.47513115 368.51279801 C23.00259388 368.52308572 27.52997748 368.52089421 32.05744672 368.51661742 C36.94234908 368.5141516 41.82723232 368.52316256 46.71212769 368.53065491 C56.28009228 368.54340794 65.84802881 368.54519484 75.41600047 368.54285464 C83.19274337 368.541072 90.96947775 368.54281997 98.74621964 368.54707909 C99.8528172 368.54767428 100.95941476 368.54826946 102.09954558 368.54888269 C104.34756326 368.55009443 106.59558094 368.55130857 108.84359862 368.55252507 C129.92830078 368.56340293 151.01298694 368.56123694 172.09769 368.55514022 C191.3873 368.54997083 210.67685949 368.56122665 229.9664595 368.58023844 C249.77245669 368.59960956 269.57842999 368.60787411 289.38443673 368.60411519 C300.50422141 368.60220204 311.62396312 368.60470175 322.74374008 368.61882973 C332.21008935 368.63073523 341.67636917 368.63215772 351.14271937 368.62003956 C355.97216361 368.61414507 360.80148078 368.61306725 365.6309166 368.62504196 C370.05370048 368.6358809 374.47625091 368.63282108 378.89902379 368.61878028 C380.49721432 368.61612787 382.09542304 368.61851695 383.69359575 368.62651614 C396.63875685 369.06252815 396.63875685 369.06252815 408.12892902 363.96560365 C418.26910954 353.03394204 413.5597229 331.55124749 413.5597229 320.24050903 C270.9997229 320.24050903 128.4397229 320.24050903 -18.4402771 320.24050903 Z M155.5597229 384.24050903 C148.36558949 398.62877586 151.95329641 416.21441373 150.5597229 432.24050903 C181.5797229 432.24050903 212.5997229 432.24050903 244.5597229 432.24050903 C244.96000285 407.42159479 244.96000285 407.42159479 239.5597229 384.24050903 C211.8397229 384.24050903 184.1197229 384.24050903 155.5597229 384.24050903 Z " fill="#FFCB65" transform="translate(50.440277099609375,47.759490966796875)"/>
<path d="M0 0 C2.625 2.0625 2.625 2.0625 5 5 C6.11463201 6.11463201 7.24046868 7.21812908 8.375 8.3125 C11.6135584 11.54395629 14.63285031 14.9323239 17.6171875 18.3984375 C19.60516203 20.87527034 19.60516203 20.87527034 22.9140625 21.34375 C29.82841882 21.81853756 29.82841882 21.81853756 36.23828125 19.71875 C38.02207505 17.91445283 39.50174585 16.04658428 41 14 C42.22075228 12.61752412 43.44999237 11.24249792 44.6875 9.875 C46.62311949 7.63992368 48.482499 5.38709587 50.3125 3.0625 C52.80124232 0.02070383 53.76492388 0.024477 57.7890625 -0.39453125 C64.53725816 -0.31480687 70.30405267 2.616945 76.375 5.3125 C77.54933594 5.81201172 78.72367188 6.31152344 79.93359375 6.82617188 C89.75121359 11.08122525 89.75121359 11.08122525 92 14 C93.2267046 19.65682432 92.82539261 24.65566123 92.2175293 30.37695312 C91.05488608 41.50049509 91.05488608 41.50049509 95.1875 51.5 C103.62246113 58.22122983 117.04032186 55.02709673 127.02075195 53.90991211 C130.5489854 54.01660048 132.19722852 54.90954888 135 57 C137.17123403 60.06004328 138.50293806 63.56801677 140 67 C140.44641846 67.98202393 140.44641846 67.98202393 140.90185547 68.98388672 C141.89249271 71.16827926 142.85546323 73.36319765 143.8125 75.5625 C144.12687012 76.25811035 144.44124023 76.9537207 144.76513672 77.67041016 C146.89426524 82.71482515 147.89035431 87.52265678 147 93 C144.9375 95.625 144.9375 95.625 142 98 C140.88536799 99.11463201 139.78187092 100.24046868 138.6875 101.375 C135.45604371 104.6135584 132.0676761 107.63285031 128.6015625 110.6171875 C126.12472966 112.60516203 126.12472966 112.60516203 125.65625 115.9140625 C125.18146244 122.82841882 125.18146244 122.82841882 127.28125 129.23828125 C129.08554717 131.02207505 130.95341572 132.50174585 133 134 C134.38247588 135.22075228 135.75750208 136.44999237 137.125 137.6875 C139.36007632 139.62311949 141.61290413 141.482499 143.9375 143.3125 C146.97929617 145.80124232 146.975523 146.76492388 147.39453125 150.7890625 C147.31480687 157.53725816 144.383055 163.30405267 141.6875 169.375 C141.18798828 170.54933594 140.68847656 171.72367188 140.17382812 172.93359375 C135.91877475 182.75121359 135.91877475 182.75121359 133 185 C127.34317568 186.2267046 122.34433877 185.82539261 116.62304688 185.2175293 C105.49950491 184.05488608 105.49950491 184.05488608 95.5 188.1875 C88.77877017 196.62246113 91.97290327 210.04032186 93.09008789 220.02075195 C92.98339952 223.5489854 92.09045112 225.19722852 90 228 C86.93995672 230.17123403 83.43198323 231.50293806 80 233 C79.34531738 233.2976123 78.69063477 233.59522461 78.01611328 233.90185547 C75.83172074 234.89249271 73.63680235 235.85546323 71.4375 236.8125 C70.74188965 237.12687012 70.0462793 237.44124023 69.32958984 237.76513672 C64.28517485 239.89426524 59.47734322 240.89035431 54 240 C51.375 237.9375 51.375 237.9375 49 235 C47.88536799 233.88536799 46.75953132 232.78187092 45.625 231.6875 C42.3864416 228.45604371 39.36714969 225.0676761 36.3828125 221.6015625 C34.39483797 219.12472966 34.39483797 219.12472966 31.0859375 218.65625 C24.17158118 218.18146244 24.17158118 218.18146244 17.76171875 220.28125 C15.97748168 222.08599554 14.49614388 223.95101743 13 226 C11.80165311 227.3837121 10.59320596 228.75873916 9.375 230.125 C8.80265625 230.78886719 8.2303125 231.45273438 7.640625 232.13671875 C5.5258749 234.53847065 3.2957885 236.77173469 1 239 C0.67 239.33 0.34 239.66 0 240 C-8.47123501 240.89684983 -14.7157557 238.08827308 -22.375 234.6875 C-23.54933594 234.18798828 -24.72367187 233.68847656 -25.93359375 233.17382812 C-35.75121359 228.91877475 -35.75121359 228.91877475 -38 226 C-39.2267046 220.34317568 -38.82539261 215.34433877 -38.2175293 209.62304688 C-37.05488608 198.49950491 -37.05488608 198.49950491 -41.1875 188.5 C-49.62246113 181.77877017 -63.04032186 184.97290327 -73.02075195 186.09008789 C-76.59012612 185.98215549 -78.20127676 185.18007739 -81 183 C-82.21386719 181.28881836 -82.21386719 181.28881836 -83.046875 179.40234375 C-83.36720703 178.69706543 -83.68753906 177.99178711 -84.01757812 177.26513672 C-84.34177734 176.5176416 -84.66597656 175.77014648 -85 175 C-85.5249707 173.86908936 -85.5249707 173.86908936 -86.06054688 172.71533203 C-87.1565723 170.34440904 -88.20642672 167.95692091 -89.25 165.5625 C-89.79527344 164.37043945 -89.79527344 164.37043945 -90.3515625 163.15429688 C-92.66267459 157.81528042 -94.03066905 152.84196807 -93 147 C-90.9375 144.375 -90.9375 144.375 -88 142 C-86.88536799 140.88536799 -85.78187092 139.75953132 -84.6875 138.625 C-81.45604371 135.3864416 -78.0676761 132.36714969 -74.6015625 129.3828125 C-72.12472966 127.39483797 -72.12472966 127.39483797 -71.65625 124.0859375 C-71.18146244 117.17158118 -71.18146244 117.17158118 -73.28125 110.76171875 C-75.08554717 108.97792495 -76.95341572 107.49825415 -79 106 C-80.38247588 104.77924772 -81.75750208 103.55000763 -83.125 102.3125 C-85.36007632 100.37688051 -87.61290413 98.517501 -89.9375 96.6875 C-92.97929617 94.19875768 -92.975523 93.23507612 -93.39453125 89.2109375 C-93.31480687 82.46274184 -90.383055 76.69594733 -87.6875 70.625 C-87.18798828 69.45066406 -86.68847656 68.27632813 -86.17382812 67.06640625 C-81.91877475 57.24878641 -81.91877475 57.24878641 -79 55 C-73.34317568 53.7732954 -68.34433877 54.17460739 -62.62304688 54.7824707 C-51.49950491 55.94511392 -51.49950491 55.94511392 -41.5 51.8125 C-34.77877017 43.37753887 -37.97290327 29.95967814 -39.09008789 19.97924805 C-38.98215549 16.40987388 -38.18007739 14.79872324 -36 12 C-34.28881836 10.78613281 -34.28881836 10.78613281 -32.40234375 9.953125 C-31.69706543 9.63279297 -30.99178711 9.31246094 -30.26513672 8.98242188 C-29.5176416 8.65822266 -28.77014648 8.33402344 -28 8 C-26.86908936 7.4750293 -26.86908936 7.4750293 -25.71533203 6.93945312 C-23.34440904 5.8434277 -20.95692091 4.79357328 -18.5625 3.75 C-17.37043945 3.20472656 -17.37043945 3.20472656 -16.15429688 2.6484375 C-10.81528042 0.33732541 -5.84196807 -1.03066905 0 0 Z M-7 18 C-13.93 20.97 -13.93 20.97 -21 24 C-20.94779297 26.83658203 -20.94779297 26.83658203 -20.89453125 29.73046875 C-20.86639161 32.21613695 -20.83909164 34.70181476 -20.8125 37.1875 C-20.78736328 38.43337891 -20.76222656 39.67925781 -20.73632812 40.96289062 C-20.72666016 42.16494141 -20.71699219 43.36699219 -20.70703125 44.60546875 C-20.6913208 45.71043701 -20.67561035 46.81540527 -20.65942383 47.95385742 C-21.23107873 53.06678802 -23.93185567 56.1840397 -27.46875 59.734375 C-28.44908203 60.71857422 -28.44908203 60.71857422 -29.44921875 61.72265625 C-30.12597656 62.39167969 -30.80273438 63.06070313 -31.5 63.75 C-32.51513672 64.77673828 -32.51513672 64.77673828 -33.55078125 65.82421875 C-34.20433594 66.47519531 -34.85789062 67.12617187 -35.53125 67.796875 C-36.12486328 68.38823242 -36.71847656 68.97958984 -37.33007812 69.58886719 C-40.66865722 72.41006414 -44.0265489 72.11724625 -48.19921875 72.09765625 C-49.40771484 72.09443359 -50.61621094 72.09121094 -51.86132812 72.08789062 C-53.12396484 72.07951172 -54.38660156 72.07113281 -55.6875 72.0625 C-57.59885742 72.05573242 -57.59885742 72.05573242 -59.54882812 72.04882812 C-62.6992387 72.03702883 -65.84962519 72.01909318 -69 72 C-70.98 76.95 -72.96 81.9 -75 87 C-73.535625 88.32 -72.07125 89.64 -70.5625 91 C-69.65757812 91.81726563 -68.75265625 92.63453125 -67.8203125 93.4765625 C-66.01616172 95.09080267 -64.19949859 96.69123416 -62.3671875 98.2734375 C-61.16449219 99.31371094 -61.16449219 99.31371094 -59.9375 100.375 C-59.20402344 101.00148438 -58.47054687 101.62796875 -57.71484375 102.2734375 C-53.35386038 106.66422258 -54.77485597 114.12705797 -54.75 119.875 C-54.729375 121.05964844 -54.70875 122.24429688 -54.6875 123.46484375 C-54.68234375 124.60824219 -54.6771875 125.75164062 -54.671875 126.9296875 C-54.65785645 128.49565674 -54.65785645 128.49565674 -54.64355469 130.09326172 C-55.23889714 134.94815709 -57.70418937 138.01731392 -61.25 141.2265625 C-61.8584375 141.7834375 -62.466875 142.3403125 -63.09375 142.9140625 C-63.7228125 143.47867188 -64.351875 144.04328125 -65 144.625 C-66.25036132 145.76262383 -67.50037349 146.90063157 -68.75 148.0390625 C-69.57757813 148.78470459 -69.57757813 148.78470459 -70.421875 149.54541016 C-71.98749901 150.98847758 -73.49440674 152.49440674 -75 154 C-72.03 160.93 -72.03 160.93 -69 168 C-67.10894531 167.96519531 -65.21789062 167.93039063 -63.26953125 167.89453125 C-60.78386305 167.86639161 -58.29818524 167.83909164 -55.8125 167.8125 C-54.56662109 167.78736328 -53.32074219 167.76222656 -52.03710938 167.73632812 C-50.83505859 167.72666016 -49.63300781 167.71699219 -48.39453125 167.70703125 C-46.73707886 167.68346558 -46.73707886 167.68346558 -45.04614258 167.65942383 C-39.93321198 168.23107873 -36.8159603 170.93185567 -33.265625 174.46875 C-32.60949219 175.12230469 -31.95335937 175.77585938 -31.27734375 176.44921875 C-30.60832031 177.12597656 -29.93929687 177.80273438 -29.25 178.5 C-28.22326172 179.51513672 -28.22326172 179.51513672 -27.17578125 180.55078125 C-26.52480469 181.20433594 -25.87382812 181.85789063 -25.203125 182.53125 C-24.61176758 183.12486328 -24.02041016 183.71847656 -23.41113281 184.33007812 C-20.58993586 187.66865722 -20.88275375 191.0265489 -20.90234375 195.19921875 C-20.90556641 196.40771484 -20.90878906 197.61621094 -20.91210938 198.86132812 C-20.92467773 200.7552832 -20.92467773 200.7552832 -20.9375 202.6875 C-20.94201172 203.96173828 -20.94652344 205.23597656 -20.95117188 206.54882812 C-20.96297117 209.6992387 -20.98090682 212.84962519 -21 216 C-16.05 217.98 -11.1 219.96 -6 222 C-4.68 220.535625 -3.36 219.07125 -2 217.5625 C-1.18273437 216.65757812 -0.36546875 215.75265625 0.4765625 214.8203125 C2.09080267 213.01616172 3.69123416 211.19949859 5.2734375 209.3671875 C5.96695313 208.56539062 6.66046875 207.76359375 7.375 206.9375 C8.00148438 206.20402344 8.62796875 205.47054687 9.2734375 204.71484375 C13.66422258 200.35386038 21.12705797 201.77485597 26.875 201.75 C28.65197266 201.7190625 28.65197266 201.7190625 30.46484375 201.6875 C31.60824219 201.68234375 32.75164062 201.6771875 33.9296875 201.671875 C34.97366699 201.6625293 36.01764648 201.65318359 37.09326172 201.64355469 C41.94815709 202.23889714 45.01731392 204.70418937 48.2265625 208.25 C48.7834375 208.8584375 49.3403125 209.466875 49.9140625 210.09375 C50.47867188 210.7228125 51.04328125 211.351875 51.625 212 C52.76262383 213.25036132 53.90063157 214.50037349 55.0390625 215.75 C55.53615723 216.30171875 56.03325195 216.8534375 56.54541016 217.421875 C57.98847758 218.98749901 59.49440674 220.49440674 61 222 C65.62 220.02 70.24 218.04 75 216 C74.96519531 214.10894531 74.93039062 212.21789062 74.89453125 210.26953125 C74.86639161 207.78386305 74.83909164 205.29818524 74.8125 202.8125 C74.78736328 201.56662109 74.76222656 200.32074219 74.73632812 199.03710938 C74.72182617 197.2340332 74.72182617 197.2340332 74.70703125 195.39453125 C74.68346558 193.73707886 74.68346558 193.73707886 74.65942383 192.04614258 C75.23107873 186.93321198 77.93185567 183.8159603 81.46875 180.265625 C82.12230469 179.60949219 82.77585937 178.95335937 83.44921875 178.27734375 C84.12597656 177.60832031 84.80273438 176.93929687 85.5 176.25 C86.17675781 175.56550781 86.85351562 174.88101563 87.55078125 174.17578125 C88.20433594 173.52480469 88.85789062 172.87382812 89.53125 172.203125 C90.12486328 171.61176758 90.71847656 171.02041016 91.33007812 170.41113281 C94.66865722 167.58993586 98.0265489 167.88275375 102.19921875 167.90234375 C103.40771484 167.90556641 104.61621094 167.90878906 105.86132812 167.91210938 C107.12396484 167.92048828 108.38660156 167.92886719 109.6875 167.9375 C111.59885742 167.94426758 111.59885742 167.94426758 113.54882812 167.95117188 C116.6992387 167.96297117 119.84962519 167.98090682 123 168 C124.98 163.05 126.96 158.1 129 153 C127.535625 151.68 126.07125 150.36 124.5625 149 C123.65757812 148.18273437 122.75265625 147.36546875 121.8203125 146.5234375 C120.01616172 144.90919733 118.19949859 143.30876584 116.3671875 141.7265625 C115.56539062 141.03304687 114.76359375 140.33953125 113.9375 139.625 C113.20402344 138.99851562 112.47054687 138.37203125 111.71484375 137.7265625 C107.35386038 133.33577742 108.77485597 125.87294203 108.75 120.125 C108.7190625 118.34802734 108.7190625 118.34802734 108.6875 116.53515625 C108.67976563 114.82005859 108.67976563 114.82005859 108.671875 113.0703125 C108.6625293 112.02633301 108.65318359 110.98235352 108.64355469 109.90673828 C109.23889714 105.05184291 111.70418937 101.98268608 115.25 98.7734375 C115.8584375 98.2165625 116.466875 97.6596875 117.09375 97.0859375 C117.7228125 96.52132812 118.351875 95.95671875 119 95.375 C120.25036132 94.23737617 121.50037349 93.09936843 122.75 91.9609375 C123.30171875 91.46384277 123.8534375 90.96674805 124.421875 90.45458984 C125.98749901 89.01152242 127.49440674 87.50559326 129 86 C127.02 81.38 125.04 76.76 123 72 C121.10894531 72.03480469 119.21789062 72.06960937 117.26953125 72.10546875 C114.78386305 72.13360839 112.29818524 72.16090836 109.8125 72.1875 C107.94368164 72.22520508 107.94368164 72.22520508 106.03710938 72.26367188 C104.83505859 72.27333984 103.63300781 72.28300781 102.39453125 72.29296875 C100.73707886 72.31653442 100.73707886 72.31653442 99.04614258 72.34057617 C93.93321198 71.76892127 90.8159603 69.06814433 87.265625 65.53125 C86.60949219 64.87769531 85.95335937 64.22414062 85.27734375 63.55078125 C84.60832031 62.87402344 83.93929687 62.19726562 83.25 61.5 C82.56550781 60.82324219 81.88101563 60.14648438 81.17578125 59.44921875 C80.52480469 58.79566406 79.87382812 58.14210937 79.203125 57.46875 C78.61176758 56.87513672 78.02041016 56.28152344 77.41113281 55.66992188 C74.58993586 52.33134278 74.88275375 48.9734511 74.90234375 44.80078125 C74.90556641 43.59228516 74.90878906 42.38378906 74.91210938 41.13867188 C74.92048828 39.87603516 74.92886719 38.61339844 74.9375 37.3125 C74.94201172 36.03826172 74.94652344 34.76402344 74.95117188 33.45117188 C74.96297117 30.3007613 74.98090682 27.15037481 75 24 C70.05 22.02 65.1 20.04 60 18 C58.68 19.464375 57.36 20.92875 56 22.4375 C54.77410156 23.79488281 54.77410156 23.79488281 53.5234375 25.1796875 C51.90919733 26.98383828 50.30876584 28.80050141 48.7265625 30.6328125 C47.68628906 31.83550781 47.68628906 31.83550781 46.625 33.0625 C45.99851562 33.79597656 45.37203125 34.52945313 44.7265625 35.28515625 C40.33577742 39.64613962 32.87294203 38.22514403 27.125 38.25 C25.94035156 38.270625 24.75570312 38.29125 23.53515625 38.3125 C22.39175781 38.31765625 21.24835938 38.3228125 20.0703125 38.328125 C18.50434326 38.34214355 18.50434326 38.34214355 16.90673828 38.35644531 C12.05184291 37.76110286 8.98268608 35.29581063 5.7734375 31.75 C5.2165625 31.1415625 4.6596875 30.533125 4.0859375 29.90625 C3.52132812 29.2771875 2.95671875 28.648125 2.375 28 C1.23737617 26.74963868 0.09936843 25.49962651 -1.0390625 24.25 C-1.53615723 23.69828125 -2.03325195 23.1465625 -2.54541016 22.578125 C-3.98847758 21.01250099 -5.49440674 19.50559326 -7 18 Z " fill="#FFCB65" transform="translate(349,24)"/>
<path d="M0 0 C10.23906578 7.73254248 18.72711365 17.59665562 20.6875 30.6875 C22.0102137 46.83249318 20.25332366 59.84801808 9.6875 72.6875 C2.06631594 81.51565891 -7.80631851 87.73002837 -19.61523438 88.91943359 C-36.25842927 89.95230219 -48.36602031 86.91475127 -61.27734375 76.03125 C-69.90636197 68.02533375 -74.97975631 57.73921602 -75.62890625 46.03125 C-76.18819388 29.34451548 -72.52277041 17.35708981 -61 4.9375 C-44.70456176 -10.48496833 -18.58433045 -12.3339951 0 0 Z M-52.3125 20.6875 C-58.27293793 29.46506033 -59.1109482 37.14798372 -58.3125 47.6875 C-56.40337675 56.10604347 -51.7712927 62.87238879 -44.47265625 67.48046875 C-34.81433996 72.60802381 -26.91792981 73.87799142 -16.3125 70.6875 C-7.56201363 66.91177993 -1.42336409 60.68401611 2.625 52.0625 C5.29735049 43.57186742 4.89766872 34.23462344 1.1875 26.1875 C-3.00248096 18.88692428 -8.76286924 13.49291039 -16.6328125 10.34765625 C-30.13240171 7.0219557 -43.11057895 10.21775872 -52.3125 20.6875 Z " fill="#FFCB65" transform="translate(403.3125,103.3125)"/>
<path d="M0 0 C50.16 0 100.32 0 152 0 C152 5.28 152 10.56 152 16 C101.84 16 51.68 16 0 16 C0 10.72 0 5.44 0 0 Z " fill="#FFCB66" transform="translate(256,312)"/>
<path d="M0 0 C44.88 0 89.76 0 136 0 C136 5.28 136 10.56 136 16 C91.12 16 46.24 16 0 16 C0 10.72 0 5.44 0 0 Z " fill="#FFCB66" transform="translate(304,280)"/>
<path d="M0 0 C0.87269531 -0.0038269 1.74539062 -0.00765381 2.64453125 -0.01159668 C4.48699092 -0.0143149 6.32948924 -0.00695994 8.171875 0.00976562 C10.99045934 0.03117752 13.80649485 0.00996199 16.625 -0.015625 C18.41667229 -0.01298171 20.20834299 -0.00785669 22 0 C22.84175781 -0.00809692 23.68351562 -0.01619385 24.55078125 -0.02453613 C28.13136419 0.03278396 30.39761762 0.18098442 33.52929688 2.00195312 C35.73374916 5.79314264 35.57275697 9.21617695 35.53125 13.53125 C35.5350769 14.40394531 35.53890381 15.27664063 35.54284668 16.17578125 C35.5455649 18.01824092 35.53820994 19.86073924 35.52148438 21.703125 C35.50007248 24.52170934 35.52128801 27.33774485 35.546875 30.15625 C35.54423171 31.94792229 35.53910669 33.73959299 35.53125 35.53125 C35.53934692 36.37300781 35.54744385 37.21476562 35.55578613 38.08203125 C35.49846604 41.66261419 35.35026558 43.92886762 33.52929688 47.06054688 C29.73810736 49.26499916 26.31507305 49.10400697 22 49.0625 C21.12730469 49.0663269 20.25460938 49.07015381 19.35546875 49.07409668 C17.51300908 49.0768149 15.67051076 49.06945994 13.828125 49.05273438 C11.00954066 49.03132248 8.19350515 49.05253801 5.375 49.078125 C3.58332771 49.07548171 1.79165701 49.07035669 0 49.0625 C-0.84175781 49.07059692 -1.68351563 49.07869385 -2.55078125 49.08703613 C-6.13136419 49.02971604 -8.39761762 48.88151558 -11.52929688 47.06054688 C-13.73374916 43.26935736 -13.57275697 39.84632305 -13.53125 35.53125 C-13.5350769 34.65855469 -13.53890381 33.78585937 -13.54284668 32.88671875 C-13.5455649 31.04425908 -13.53820994 29.20176076 -13.52148438 27.359375 C-13.50007248 24.54079066 -13.52128801 21.72475515 -13.546875 18.90625 C-13.54423171 17.11457771 -13.53910669 15.32290701 -13.53125 13.53125 C-13.53934692 12.68949219 -13.54744385 11.84773438 -13.55578613 10.98046875 C-13.49846604 7.39988581 -13.35026558 5.13363238 -11.52929688 2.00195312 C-7.73810736 -0.20249916 -4.31507305 -0.04150697 0 0 Z M3 16.53125 C3 21.81125 3 27.09125 3 32.53125 C8.28 32.53125 13.56 32.53125 19 32.53125 C19 27.25125 19 21.97125 19 16.53125 C13.72 16.53125 8.44 16.53125 3 16.53125 Z " fill="#FFCB65" transform="translate(197,279.46875)"/>
<path d="M0 0 C0.87269531 -0.0038269 1.74539062 -0.00765381 2.64453125 -0.01159668 C4.48699092 -0.0143149 6.32948924 -0.00695994 8.171875 0.00976562 C10.99045934 0.03117752 13.80649485 0.00996199 16.625 -0.015625 C18.41667229 -0.01298171 20.20834299 -0.00785669 22 0 C22.84175781 -0.00809692 23.68351562 -0.01619385 24.55078125 -0.02453613 C28.13136419 0.03278396 30.39761762 0.18098442 33.52929688 2.00195312 C35.73374916 5.79314264 35.57275697 9.21617695 35.53125 13.53125 C35.5350769 14.40394531 35.53890381 15.27664063 35.54284668 16.17578125 C35.5455649 18.01824092 35.53820994 19.86073924 35.52148438 21.703125 C35.50007248 24.52170934 35.52128801 27.33774485 35.546875 30.15625 C35.54423171 31.94792229 35.53910669 33.73959299 35.53125 35.53125 C35.53934692 36.37300781 35.54744385 37.21476562 35.55578613 38.08203125 C35.49846604 41.66261419 35.35026558 43.92886762 33.52929688 47.06054688 C29.73810736 49.26499916 26.31507305 49.10400697 22 49.0625 C21.12730469 49.0663269 20.25460938 49.07015381 19.35546875 49.07409668 C17.51300908 49.0768149 15.67051076 49.06945994 13.828125 49.05273438 C11.00954066 49.03132248 8.19350515 49.05253801 5.375 49.078125 C3.58332771 49.07548171 1.79165701 49.07035669 0 49.0625 C-0.84175781 49.07059692 -1.68351563 49.07869385 -2.55078125 49.08703613 C-6.13136419 49.02971604 -8.39761762 48.88151558 -11.52929688 47.06054688 C-13.73374916 43.26935736 -13.57275697 39.84632305 -13.53125 35.53125 C-13.5350769 34.65855469 -13.53890381 33.78585937 -13.54284668 32.88671875 C-13.5455649 31.04425908 -13.53820994 29.20176076 -13.52148438 27.359375 C-13.50007248 24.54079066 -13.52128801 21.72475515 -13.546875 18.90625 C-13.54423171 17.11457771 -13.53910669 15.32290701 -13.53125 13.53125 C-13.53934692 12.68949219 -13.54744385 11.84773438 -13.55578613 10.98046875 C-13.49846604 7.39988581 -13.35026558 5.13363238 -11.52929688 2.00195312 C-7.73810736 -0.20249916 -4.31507305 -0.04150697 0 0 Z M3 16.53125 C3 21.81125 3 27.09125 3 32.53125 C8.28 32.53125 13.56 32.53125 19 32.53125 C19 27.25125 19 21.97125 19 16.53125 C13.72 16.53125 8.44 16.53125 3 16.53125 Z " fill="#FFCB65" transform="translate(133,279.46875)"/>
<path d="M0 0 C0.87269531 -0.0038269 1.74539062 -0.00765381 2.64453125 -0.01159668 C4.48699092 -0.0143149 6.32948924 -0.00695994 8.171875 0.00976562 C10.99045934 0.03117752 13.80649485 0.00996199 16.625 -0.015625 C18.41667229 -0.01298171 20.20834299 -0.00785669 22 0 C22.84175781 -0.00809692 23.68351562 -0.01619385 24.55078125 -0.02453613 C28.13136419 0.03278396 30.39761762 0.18098442 33.52929688 2.00195312 C35.73374916 5.79314264 35.57275697 9.21617695 35.53125 13.53125 C35.5350769 14.40394531 35.53890381 15.27664063 35.54284668 16.17578125 C35.5455649 18.01824092 35.53820994 19.86073924 35.52148438 21.703125 C35.50007248 24.52170934 35.52128801 27.33774485 35.546875 30.15625 C35.54423171 31.94792229 35.53910669 33.73959299 35.53125 35.53125 C35.53934692 36.37300781 35.54744385 37.21476562 35.55578613 38.08203125 C35.49846604 41.66261419 35.35026558 43.92886762 33.52929688 47.06054688 C29.73810736 49.26499916 26.31507305 49.10400697 22 49.0625 C21.12730469 49.0663269 20.25460938 49.07015381 19.35546875 49.07409668 C17.51300908 49.0768149 15.67051076 49.06945994 13.828125 49.05273438 C11.00954066 49.03132248 8.19350515 49.05253801 5.375 49.078125 C3.58332771 49.07548171 1.79165701 49.07035669 0 49.0625 C-0.84175781 49.07059692 -1.68351562 49.07869385 -2.55078125 49.08703613 C-6.13136419 49.02971604 -8.39761762 48.88151558 -11.52929688 47.06054688 C-13.73374916 43.26935736 -13.57275697 39.84632305 -13.53125 35.53125 C-13.5350769 34.65855469 -13.53890381 33.78585937 -13.54284668 32.88671875 C-13.5455649 31.04425908 -13.53820994 29.20176076 -13.52148438 27.359375 C-13.50007248 24.54079066 -13.52128801 21.72475515 -13.546875 18.90625 C-13.54423171 17.11457771 -13.53910669 15.32290701 -13.53125 13.53125 C-13.53934692 12.68949219 -13.54744385 11.84773438 -13.55578613 10.98046875 C-13.49846604 7.39988581 -13.35026558 5.13363238 -11.52929688 2.00195312 C-7.73810736 -0.20249916 -4.31507305 -0.04150697 0 0 Z M3 16.53125 C3 21.81125 3 27.09125 3 32.53125 C8.28 32.53125 13.56 32.53125 19 32.53125 C19 27.25125 19 21.97125 19 16.53125 C13.72 16.53125 8.44 16.53125 3 16.53125 Z " fill="#FFCB65" transform="translate(69,279.46875)"/>
<path d="M0 0 C0.87269531 -0.0038269 1.74539062 -0.00765381 2.64453125 -0.01159668 C4.48699092 -0.0143149 6.32948924 -0.00695994 8.171875 0.00976562 C10.99045934 0.03117752 13.80649485 0.00996199 16.625 -0.015625 C18.41667229 -0.01298171 20.20834299 -0.00785669 22 0 C22.84175781 -0.00809692 23.68351562 -0.01619385 24.55078125 -0.02453613 C28.13136419 0.03278396 30.39761762 0.18098442 33.52929688 2.00195312 C35.73374916 5.79314264 35.57275697 9.21617695 35.53125 13.53125 C35.5350769 14.40394531 35.53890381 15.27664062 35.54284668 16.17578125 C35.5455649 18.01824092 35.53820994 19.86073924 35.52148438 21.703125 C35.50007248 24.52170934 35.52128801 27.33774485 35.546875 30.15625 C35.54423171 31.94792229 35.53910669 33.73959299 35.53125 35.53125 C35.53934692 36.37300781 35.54744385 37.21476562 35.55578613 38.08203125 C35.49846604 41.66261419 35.35026558 43.92886762 33.52929688 47.06054688 C29.73810736 49.26499916 26.31507305 49.10400697 22 49.0625 C21.12730469 49.0663269 20.25460938 49.07015381 19.35546875 49.07409668 C17.51300908 49.0768149 15.67051076 49.06945994 13.828125 49.05273438 C11.00954066 49.03132248 8.19350515 49.05253801 5.375 49.078125 C3.58332771 49.07548171 1.79165701 49.07035669 0 49.0625 C-0.84175781 49.07059692 -1.68351563 49.07869385 -2.55078125 49.08703613 C-6.13136419 49.02971604 -8.39761762 48.88151558 -11.52929688 47.06054688 C-13.73374916 43.26935736 -13.57275697 39.84632305 -13.53125 35.53125 C-13.5350769 34.65855469 -13.53890381 33.78585938 -13.54284668 32.88671875 C-13.5455649 31.04425908 -13.53820994 29.20176076 -13.52148438 27.359375 C-13.50007248 24.54079066 -13.52128801 21.72475515 -13.546875 18.90625 C-13.54423171 17.11457771 -13.53910669 15.32290701 -13.53125 13.53125 C-13.53934692 12.68949219 -13.54744385 11.84773437 -13.55578613 10.98046875 C-13.49846604 7.39988581 -13.35026558 5.13363238 -11.52929688 2.00195312 C-7.73810736 -0.20249916 -4.31507305 -0.04150697 0 0 Z M3 16.53125 C3 21.81125 3 27.09125 3 32.53125 C8.28 32.53125 13.56 32.53125 19 32.53125 C19 27.25125 19 21.97125 19 16.53125 C13.72 16.53125 8.44 16.53125 3 16.53125 Z " fill="#FFCB65" transform="translate(197,215.46875)"/>
<path d="M0 0 C0.87269531 -0.0038269 1.74539062 -0.00765381 2.64453125 -0.01159668 C4.48699092 -0.0143149 6.32948924 -0.00695994 8.171875 0.00976562 C10.99045934 0.03117752 13.80649485 0.00996199 16.625 -0.015625 C18.41667229 -0.01298171 20.20834299 -0.00785669 22 0 C22.84175781 -0.00809692 23.68351562 -0.01619385 24.55078125 -0.02453613 C28.13136419 0.03278396 30.39761762 0.18098442 33.52929688 2.00195312 C35.73374916 5.79314264 35.57275697 9.21617695 35.53125 13.53125 C35.5350769 14.40394531 35.53890381 15.27664062 35.54284668 16.17578125 C35.5455649 18.01824092 35.53820994 19.86073924 35.52148438 21.703125 C35.50007248 24.52170934 35.52128801 27.33774485 35.546875 30.15625 C35.54423171 31.94792229 35.53910669 33.73959299 35.53125 35.53125 C35.53934692 36.37300781 35.54744385 37.21476562 35.55578613 38.08203125 C35.49846604 41.66261419 35.35026558 43.92886762 33.52929688 47.06054688 C29.73810736 49.26499916 26.31507305 49.10400697 22 49.0625 C21.12730469 49.0663269 20.25460938 49.07015381 19.35546875 49.07409668 C17.51300908 49.0768149 15.67051076 49.06945994 13.828125 49.05273438 C11.00954066 49.03132248 8.19350515 49.05253801 5.375 49.078125 C3.58332771 49.07548171 1.79165701 49.07035669 0 49.0625 C-0.84175781 49.07059692 -1.68351563 49.07869385 -2.55078125 49.08703613 C-6.13136419 49.02971604 -8.39761762 48.88151558 -11.52929688 47.06054688 C-13.73374916 43.26935736 -13.57275697 39.84632305 -13.53125 35.53125 C-13.5350769 34.65855469 -13.53890381 33.78585938 -13.54284668 32.88671875 C-13.5455649 31.04425908 -13.53820994 29.20176076 -13.52148438 27.359375 C-13.50007248 24.54079066 -13.52128801 21.72475515 -13.546875 18.90625 C-13.54423171 17.11457771 -13.53910669 15.32290701 -13.53125 13.53125 C-13.53934692 12.68949219 -13.54744385 11.84773437 -13.55578613 10.98046875 C-13.49846604 7.39988581 -13.35026558 5.13363238 -11.52929688 2.00195312 C-7.73810736 -0.20249916 -4.31507305 -0.04150697 0 0 Z M3 16.53125 C3 21.81125 3 27.09125 3 32.53125 C8.28 32.53125 13.56 32.53125 19 32.53125 C19 27.25125 19 21.97125 19 16.53125 C13.72 16.53125 8.44 16.53125 3 16.53125 Z " fill="#FFCB65" transform="translate(133,215.46875)"/>
<path d="M0 0 C0.87269531 -0.0038269 1.74539062 -0.00765381 2.64453125 -0.01159668 C4.48699092 -0.0143149 6.32948924 -0.00695994 8.171875 0.00976562 C10.99045934 0.03117752 13.80649485 0.00996199 16.625 -0.015625 C18.41667229 -0.01298171 20.20834299 -0.00785669 22 0 C22.84175781 -0.00809692 23.68351562 -0.01619385 24.55078125 -0.02453613 C28.13136419 0.03278396 30.39761762 0.18098442 33.52929688 2.00195312 C35.73374916 5.79314264 35.57275697 9.21617695 35.53125 13.53125 C35.5350769 14.40394531 35.53890381 15.27664062 35.54284668 16.17578125 C35.5455649 18.01824092 35.53820994 19.86073924 35.52148438 21.703125 C35.50007248 24.52170934 35.52128801 27.33774485 35.546875 30.15625 C35.54423171 31.94792229 35.53910669 33.73959299 35.53125 35.53125 C35.53934692 36.37300781 35.54744385 37.21476562 35.55578613 38.08203125 C35.49846604 41.66261419 35.35026558 43.92886762 33.52929688 47.06054688 C29.73810736 49.26499916 26.31507305 49.10400697 22 49.0625 C21.12730469 49.0663269 20.25460938 49.07015381 19.35546875 49.07409668 C17.51300908 49.0768149 15.67051076 49.06945994 13.828125 49.05273438 C11.00954066 49.03132248 8.19350515 49.05253801 5.375 49.078125 C3.58332771 49.07548171 1.79165701 49.07035669 0 49.0625 C-0.84175781 49.07059692 -1.68351562 49.07869385 -2.55078125 49.08703613 C-6.13136419 49.02971604 -8.39761762 48.88151558 -11.52929688 47.06054688 C-13.73374916 43.26935736 -13.57275697 39.84632305 -13.53125 35.53125 C-13.5350769 34.65855469 -13.53890381 33.78585938 -13.54284668 32.88671875 C-13.5455649 31.04425908 -13.53820994 29.20176076 -13.52148438 27.359375 C-13.50007248 24.54079066 -13.52128801 21.72475515 -13.546875 18.90625 C-13.54423171 17.11457771 -13.53910669 15.32290701 -13.53125 13.53125 C-13.53934692 12.68949219 -13.54744385 11.84773437 -13.55578613 10.98046875 C-13.49846604 7.39988581 -13.35026558 5.13363238 -11.52929688 2.00195312 C-7.73810736 -0.20249916 -4.31507305 -0.04150697 0 0 Z M3 16.53125 C3 21.81125 3 27.09125 3 32.53125 C8.28 32.53125 13.56 32.53125 19 32.53125 C19 27.25125 19 21.97125 19 16.53125 C13.72 16.53125 8.44 16.53125 3 16.53125 Z " fill="#FFCB65" transform="translate(69,215.46875)"/>
<path d="M0 0 C0.87269531 -0.0038269 1.74539062 -0.00765381 2.64453125 -0.01159668 C4.48699092 -0.0143149 6.32948924 -0.00695994 8.171875 0.00976562 C10.99045934 0.03117752 13.80649485 0.00996199 16.625 -0.015625 C18.41667229 -0.01298171 20.20834299 -0.00785669 22 0 C22.84175781 -0.00809692 23.68351562 -0.01619385 24.55078125 -0.02453613 C28.13136419 0.03278396 30.39761762 0.18098442 33.52929688 2.00195312 C35.73374916 5.79314264 35.57275697 9.21617695 35.53125 13.53125 C35.5350769 14.40394531 35.53890381 15.27664062 35.54284668 16.17578125 C35.5455649 18.01824092 35.53820994 19.86073924 35.52148438 21.703125 C35.50007248 24.52170934 35.52128801 27.33774485 35.546875 30.15625 C35.54423171 31.94792229 35.53910669 33.73959299 35.53125 35.53125 C35.53934692 36.37300781 35.54744385 37.21476562 35.55578613 38.08203125 C35.49846604 41.66261419 35.35026558 43.92886762 33.52929688 47.06054688 C29.73810736 49.26499916 26.31507305 49.10400697 22 49.0625 C21.12730469 49.0663269 20.25460938 49.07015381 19.35546875 49.07409668 C17.51300908 49.0768149 15.67051076 49.06945994 13.828125 49.05273438 C11.00954066 49.03132248 8.19350515 49.05253801 5.375 49.078125 C3.58332771 49.07548171 1.79165701 49.07035669 0 49.0625 C-0.84175781 49.07059692 -1.68351563 49.07869385 -2.55078125 49.08703613 C-6.13136419 49.02971604 -8.39761762 48.88151558 -11.52929688 47.06054688 C-13.73374916 43.26935736 -13.57275697 39.84632305 -13.53125 35.53125 C-13.5350769 34.65855469 -13.53890381 33.78585938 -13.54284668 32.88671875 C-13.5455649 31.04425908 -13.53820994 29.20176076 -13.52148438 27.359375 C-13.50007248 24.54079066 -13.52128801 21.72475515 -13.546875 18.90625 C-13.54423171 17.11457771 -13.53910669 15.32290701 -13.53125 13.53125 C-13.53934692 12.68949219 -13.54744385 11.84773437 -13.55578613 10.98046875 C-13.49846604 7.39988581 -13.35026558 5.13363238 -11.52929688 2.00195312 C-7.73810736 -0.20249916 -4.31507305 -0.04150697 0 0 Z M3 16.53125 C3 21.81125 3 27.09125 3 32.53125 C8.28 32.53125 13.56 32.53125 19 32.53125 C19 27.25125 19 21.97125 19 16.53125 C13.72 16.53125 8.44 16.53125 3 16.53125 Z " fill="#FFCB65" transform="translate(197,151.46875)"/>
<path d="M0 0 C0.87269531 -0.0038269 1.74539062 -0.00765381 2.64453125 -0.01159668 C4.48699092 -0.0143149 6.32948924 -0.00695994 8.171875 0.00976562 C10.99045934 0.03117752 13.80649485 0.00996199 16.625 -0.015625 C18.41667229 -0.01298171 20.20834299 -0.00785669 22 0 C22.84175781 -0.00809692 23.68351562 -0.01619385 24.55078125 -0.02453613 C28.13136419 0.03278396 30.39761762 0.18098442 33.52929688 2.00195312 C35.73374916 5.79314264 35.57275697 9.21617695 35.53125 13.53125 C35.5350769 14.40394531 35.53890381 15.27664062 35.54284668 16.17578125 C35.5455649 18.01824092 35.53820994 19.86073924 35.52148438 21.703125 C35.50007248 24.52170934 35.52128801 27.33774485 35.546875 30.15625 C35.54423171 31.94792229 35.53910669 33.73959299 35.53125 35.53125 C35.53934692 36.37300781 35.54744385 37.21476562 35.55578613 38.08203125 C35.49846604 41.66261419 35.35026558 43.92886762 33.52929688 47.06054688 C29.73810736 49.26499916 26.31507305 49.10400697 22 49.0625 C21.12730469 49.0663269 20.25460938 49.07015381 19.35546875 49.07409668 C17.51300908 49.0768149 15.67051076 49.06945994 13.828125 49.05273438 C11.00954066 49.03132248 8.19350515 49.05253801 5.375 49.078125 C3.58332771 49.07548171 1.79165701 49.07035669 0 49.0625 C-0.84175781 49.07059692 -1.68351563 49.07869385 -2.55078125 49.08703613 C-6.13136419 49.02971604 -8.39761762 48.88151558 -11.52929688 47.06054688 C-13.73374916 43.26935736 -13.57275697 39.84632305 -13.53125 35.53125 C-13.5350769 34.65855469 -13.53890381 33.78585938 -13.54284668 32.88671875 C-13.5455649 31.04425908 -13.53820994 29.20176076 -13.52148438 27.359375 C-13.50007248 24.54079066 -13.52128801 21.72475515 -13.546875 18.90625 C-13.54423171 17.11457771 -13.53910669 15.32290701 -13.53125 13.53125 C-13.53934692 12.68949219 -13.54744385 11.84773437 -13.55578613 10.98046875 C-13.49846604 7.39988581 -13.35026558 5.13363238 -11.52929688 2.00195312 C-7.73810736 -0.20249916 -4.31507305 -0.04150697 0 0 Z M3 16.53125 C3 21.81125 3 27.09125 3 32.53125 C8.28 32.53125 13.56 32.53125 19 32.53125 C19 27.25125 19 21.97125 19 16.53125 C13.72 16.53125 8.44 16.53125 3 16.53125 Z " fill="#FFCB65" transform="translate(133,151.46875)"/>
<path d="M0 0 C0.87269531 -0.0038269 1.74539062 -0.00765381 2.64453125 -0.01159668 C4.48699092 -0.0143149 6.32948924 -0.00695994 8.171875 0.00976562 C10.99045934 0.03117752 13.80649485 0.00996199 16.625 -0.015625 C18.41667229 -0.01298171 20.20834299 -0.00785669 22 0 C22.84175781 -0.00809692 23.68351562 -0.01619385 24.55078125 -0.02453613 C28.13136419 0.03278396 30.39761762 0.18098442 33.52929688 2.00195312 C35.73374916 5.79314264 35.57275697 9.21617695 35.53125 13.53125 C35.5350769 14.40394531 35.53890381 15.27664062 35.54284668 16.17578125 C35.5455649 18.01824092 35.53820994 19.86073924 35.52148438 21.703125 C35.50007248 24.52170934 35.52128801 27.33774485 35.546875 30.15625 C35.54423171 31.94792229 35.53910669 33.73959299 35.53125 35.53125 C35.53934692 36.37300781 35.54744385 37.21476562 35.55578613 38.08203125 C35.49846604 41.66261419 35.35026558 43.92886762 33.52929688 47.06054688 C29.73810736 49.26499916 26.31507305 49.10400697 22 49.0625 C21.12730469 49.0663269 20.25460938 49.07015381 19.35546875 49.07409668 C17.51300908 49.0768149 15.67051076 49.06945994 13.828125 49.05273438 C11.00954066 49.03132248 8.19350515 49.05253801 5.375 49.078125 C3.58332771 49.07548171 1.79165701 49.07035669 0 49.0625 C-0.84175781 49.07059692 -1.68351562 49.07869385 -2.55078125 49.08703613 C-6.13136419 49.02971604 -8.39761762 48.88151558 -11.52929688 47.06054688 C-13.73374916 43.26935736 -13.57275697 39.84632305 -13.53125 35.53125 C-13.5350769 34.65855469 -13.53890381 33.78585938 -13.54284668 32.88671875 C-13.5455649 31.04425908 -13.53820994 29.20176076 -13.52148438 27.359375 C-13.50007248 24.54079066 -13.52128801 21.72475515 -13.546875 18.90625 C-13.54423171 17.11457771 -13.53910669 15.32290701 -13.53125 13.53125 C-13.53934692 12.68949219 -13.54744385 11.84773437 -13.55578613 10.98046875 C-13.49846604 7.39988581 -13.35026558 5.13363238 -11.52929688 2.00195312 C-7.73810736 -0.20249916 -4.31507305 -0.04150697 0 0 Z M3 16.53125 C3 21.81125 3 27.09125 3 32.53125 C8.28 32.53125 13.56 32.53125 19 32.53125 C19 27.25125 19 21.97125 19 16.53125 C13.72 16.53125 8.44 16.53125 3 16.53125 Z " fill="#FFCB65" transform="translate(69,151.46875)"/>
<path d="M0 0 C5.28 0 10.56 0 16 0 C16 5.28 16 10.56 16 16 C10.72 16 5.44 16 0 16 C0 10.72 0 5.44 0 0 Z " fill="#FFCB66" transform="translate(240,384)"/>
<path d="M0 0 C5.28 0 10.56 0 16 0 C16 5.28 16 10.56 16 16 C10.72 16 5.44 16 0 16 C0 10.72 0 5.44 0 0 Z " fill="#FFCB66" transform="translate(272,280)"/>
<path d="M0 0 C5.28 0 10.56 0 16 0 C16 5.28 16 10.56 16 16 C10.72 16 5.44 16 0 16 C0 10.72 0 5.44 0 0 Z " fill="#FFCB66" transform="translate(112,80)"/>
<path d="M0 0 C5.28 0 10.56 0 16 0 C16 5.28 16 10.56 16 16 C10.72 16 5.44 16 0 16 C0 10.72 0 5.44 0 0 Z " fill="#FFCB66" transform="translate(80,80)"/>
<path d="M0 0 C5.28 0 10.56 0 16 0 C16 5.28 16 10.56 16 16 C10.72 16 5.44 16 0 16 C0 10.72 0 5.44 0 0 Z " fill="#FFCB66" transform="translate(48,80)"/>
</svg>
