<?xml version="1.0" encoding="UTF-8"?>
<svg version="1.1" xmlns="http://www.w3.org/2000/svg" width="512" height="512">
<path d="M0 0 C1.03228686 -0.00679667 1.03228686 -0.00679667 2.085428 -0.01373065 C4.37902245 -0.02633618 6.67237828 -0.02475679 8.96600342 -0.02310181 C10.61566979 -0.02908954 12.26533337 -0.03589565 13.91499329 -0.04345703 C18.38832229 -0.06110106 22.86157475 -0.06581179 27.33493519 -0.0670886 C30.13280085 -0.06851186 32.93064715 -0.07278482 35.728508 -0.07808304 C45.49827811 -0.09657926 55.26799371 -0.10475431 65.03778076 -0.10317993 C74.12981017 -0.10197921 83.22160192 -0.12306906 92.31357121 -0.15466726 C100.13120486 -0.18086375 107.94876107 -0.19154579 115.76643825 -0.19026911 C120.43032741 -0.1897604 125.09400539 -0.19539329 129.75785065 -0.21662521 C134.14760262 -0.23606408 138.5369432 -0.23609369 142.92671013 -0.22159195 C144.53185315 -0.21950962 146.1370223 -0.22417025 147.74212074 -0.23631287 C160.20753267 -0.32445655 170.66226722 1.30746044 179.92987061 10.26742554 C190.64799005 22.70733124 190.33534931 35.27747291 190.11737061 50.89242554 C190.10229916 52.77392526 190.0886151 54.65543664 190.07635498 56.53695679 C190.04353813 61.11407084 189.99189128 65.69061785 189.92987061 70.26742554 C190.72463491 70.26373837 191.51939922 70.26005119 192.3382473 70.25625229 C211.70258255 70.16780302 231.06687733 70.10166818 250.43137169 70.06017685 C259.79601688 70.03957713 269.16052698 70.01150618 278.52508545 69.96566772 C286.69000613 69.92572051 294.85482895 69.89997391 303.01984465 69.89107156 C307.34068842 69.88587012 311.66125227 69.87369924 315.98200607 69.84450531 C320.05483043 69.81721137 324.12726147 69.80900853 328.20016861 69.81499481 C329.68921806 69.81390079 331.17828164 69.80603032 332.66725159 69.79060364 C345.09916215 69.66819631 354.50001263 71.82907388 363.92987061 80.26742554 C370.00296293 86.61656751 374.04716332 93.91114561 374.06129837 102.7949934 C374.06513952 103.70309015 374.06898066 104.61118691 374.0729382 105.54680175 C374.07207172 106.54065786 374.07120524 107.53451397 374.0703125 108.55848694 C374.07476918 110.14667377 374.07476918 110.14667377 374.0793159 111.76694518 C374.08801052 115.32660217 374.0895118 118.88622556 374.09100342 122.44589233 C374.09563107 124.9934242 374.10065566 127.54095536 374.10604858 130.08848572 C374.11918013 137.01838447 374.1256558 143.94827214 374.13005924 150.87818122 C374.132823 155.20672525 374.13706063 159.53526706 374.14156342 163.86380959 C374.15375581 175.85220925 374.16405483 187.84060714 374.16743851 199.82901287 C374.16765807 200.59618725 374.16787764 201.36336164 374.16810386 202.15378373 C374.16832214 202.92277867 374.16854041 203.69177361 374.16876531 204.48407143 C374.16920877 206.04230861 374.16965533 207.60054578 374.17010498 209.15878296 C374.17032641 209.93172 374.17054784 210.70465704 374.17077598 211.50101642 C374.17472249 224.02037069 374.19217214 236.53966671 374.2154645 249.05899849 C374.23919457 261.91758201 374.25164113 274.77613631 374.25280643 287.63474208 C374.25372231 294.85225237 374.25945278 302.06968678 374.27762604 309.28717613 C374.29466382 316.0775839 374.29626726 322.86782322 374.28748703 329.65825462 C374.28671608 332.14910772 374.29106696 334.63996853 374.30094528 337.13080215 C374.31365113 340.53452157 374.30779484 343.93772994 374.29736328 347.34144592 C374.30944789 348.81549968 374.30944789 348.81549968 374.32177663 350.3193323 C374.24602688 360.90771395 371.20743144 368.55408261 363.92987061 376.26742554 C359.3591472 380.38915843 354.6742049 383.11330018 348.92987061 385.26742554 C353.59888517 390.87167085 358.57611731 395.94405594 363.89471436 400.92953491 C370.21968111 407.06847323 373.98135905 413.81506376 374.22259521 422.76351929 C374.32346878 433.62299392 372.28161137 440.43802659 364.72283936 448.54476929 C357.68826045 455.30348236 350.38241676 456.6813336 340.97479248 456.63095093 C325.42434114 456.22933803 316.01315238 443.4975666 305.77362061 433.20883179 C304.61942166 432.05276391 303.46499888 430.89691948 302.31036377 429.74128723 C299.29645653 426.72359223 296.28556658 423.70290467 293.27532959 420.68154907 C290.19326986 417.58919407 287.10831828 414.49972686 284.02362061 411.41000366 C277.98956256 405.36527442 271.95869418 399.31737548 265.92987061 393.26742554 C264.91836693 393.57194389 264.91836693 393.57194389 263.88642883 393.88261414 C262.99527878 394.15051254 262.10412872 394.41841095 261.18597412 394.69442749 C260.30538834 394.95931473 259.42480255 395.22420197 258.51753235 395.49711609 C245.99759623 399.22411986 235.03699154 400.70800103 221.92987061 400.26742554 C226.21987061 410.49742554 230.50987061 420.72742554 234.92987061 431.26742554 C238.69780029 431.29320679 242.46572998 431.31898804 246.34783936 431.34555054 C249.99838727 431.38396633 253.64879373 431.42912831 257.29925537 431.47494507 C259.83564497 431.50316502 262.37212268 431.52437439 264.90863037 431.53842163 C268.5554926 431.55983597 272.20129425 431.60648174 275.84783936 431.65805054 C276.98134323 431.65927917 278.11484711 431.66050781 279.28269958 431.66177368 C287.17482941 431.8084869 287.17482941 431.8084869 291.10296631 434.19613647 C294.54709305 438.10098363 295.38369806 440.89230894 295.25408936 446.23617554 C294.71989465 449.58293757 293.06110835 451.70994025 290.92987061 454.26742554 C287.7064401 456.41637921 286.86540922 456.51858646 283.1549778 456.52469444 C282.1662872 456.53114334 281.1775966 456.53759223 280.15894568 456.54423654 C279.06995643 456.54113934 277.98096719 456.53804213 276.85897827 456.53485107 C275.70429751 456.53938219 274.54961674 456.5439133 273.35994565 456.54858172 C270.14968853 456.5590747 266.93957177 456.56054768 263.72930288 456.55819297 C260.26908853 456.55778557 256.80890785 456.56881655 253.34870911 456.57830811 C246.567555 456.59493584 239.78643565 456.60041845 233.00526287 456.60153286 C227.49431139 456.6024825 221.9833714 456.60658855 216.47242355 456.61293411 C200.85494994 456.63055136 185.23750384 456.63977223 169.62002023 456.63827316 C168.35655534 456.6381533 168.35655534 456.6381533 167.06756592 456.63803101 C165.80256203 456.63790836 165.80256203 456.63790836 164.51200251 456.63778324 C150.84205353 456.6369702 137.17221471 456.6561111 123.5022976 456.68430774 C109.47306665 456.71301766 95.44388946 456.72684908 81.41462839 456.72512019 C73.53546205 456.72445563 65.65641119 456.7299766 57.77727127 456.75147629 C51.06905856 456.76966326 44.36101364 456.774056 37.65278699 456.76045744 C34.22932875 456.75391509 30.80619266 456.7538556 27.38276482 456.77116394 C23.67312903 456.78651626 19.96434661 456.77737352 16.25473022 456.76190186 C14.62793852 456.77733254 14.62793852 456.77733254 12.96828234 456.79307497 C5.67516264 456.72558455 5.67516264 456.72558455 1.80409813 454.34589577 C-1.69931922 450.46069583 -2.52440793 447.66114067 -2.39434814 442.29867554 C-1.86015343 438.9519135 -0.20136714 436.82491083 1.92987061 434.26742554 C5.27603952 432.03664626 6.3258102 432.02218516 10.22747803 432.04037476 C11.30837204 432.04052582 12.38926605 432.04067688 13.50291443 432.04083252 C15.25146477 432.05631638 15.25146477 432.05631638 17.03533936 432.07211304 C18.82685173 432.07635788 18.82685173 432.07635788 20.65455627 432.08068848 C24.47559558 432.09189877 28.29640194 432.11700517 32.11737061 432.14242554 C34.70525785 432.15245423 37.29314876 432.16158027 39.88104248 432.16976929 C46.23073156 432.19184089 52.58028444 432.22532693 58.92987061 432.26742554 C59.02066895 431.63296509 59.11146729 430.99850464 59.20501709 430.34481812 C60.21500388 426.05688162 61.87248999 422.10480458 63.52752686 418.02914429 C64.05810951 416.7079937 64.05810951 416.7079937 64.59941101 415.3601532 C65.72635007 412.55676147 66.85927109 409.75583217 67.99237061 406.95492554 C68.75904284 405.05078814 69.52532341 403.14649299 70.29119873 401.24203491 C72.16622177 396.58199139 74.0466122 391.92414666 75.92987061 387.26742554 C75.27610065 387.26688077 74.6223307 387.266336 73.94874954 387.26577473 C57.9966895 387.25076805 42.04497318 387.20816503 26.09308243 387.13533497 C18.37865324 387.10077042 10.66440116 387.07534071 2.94989014 387.0718689 C-3.77882468 387.06881705 -10.50722339 387.0481639 -17.23581624 387.00690097 C-20.79437054 386.98567894 -24.3524767 386.97291399 -27.91109467 386.98127174 C-31.89650882 386.99030052 -35.88074107 386.96000952 -39.86602783 386.92684937 C-41.61068077 386.93978783 -41.61068077 386.93978783 -43.39057922 386.95298767 C-54.64944123 386.79678823 -63.98690928 383.29818942 -72.16387939 375.44711304 C-79.38310528 367.19234246 -81.37108669 358.43207291 -81.33755493 347.74258423 C-81.34208604 346.68278972 -81.34661716 345.62299522 -81.35128558 344.53108573 C-81.3639456 340.97993853 -81.36230814 337.42894437 -81.36065674 333.8777771 C-81.366641 331.33157148 -81.37344631 328.78536767 -81.38101196 326.23916626 C-81.39685377 320.0402774 -81.40312085 313.84144459 -81.40423672 307.64253739 C-81.40518799 302.60176127 -81.40930222 297.56099768 -81.41563797 292.52022552 C-81.43324699 278.2185673 -81.44247748 263.91693907 -81.44097702 249.61526993 C-81.44089711 248.84467073 -81.4408172 248.07407154 -81.44073486 247.28012085 C-81.4406531 246.50857712 -81.44057134 245.7370334 -81.4404871 244.94210956 C-81.43967449 232.44293267 -81.45880662 219.94387638 -81.4870116 207.44473436 C-81.5157652 194.60076659 -81.5295505 181.75685758 -81.52782404 168.91285682 C-81.52716095 161.70594422 -81.53261752 154.49915802 -81.55418015 147.29227448 C-81.57433545 140.51246137 -81.57369298 133.73295903 -81.55914688 126.95311737 C-81.55705652 124.46752025 -81.5617731 121.98190647 -81.5738678 119.49633789 C-81.58933344 116.09731321 -81.58000223 112.69920673 -81.56460571 109.30020142 C-81.57489284 108.32177599 -81.58517997 107.34335057 -81.59577882 106.33527589 C-81.49512844 96.246885 -77.95834685 87.66588133 -71.07012939 80.26742554 C-62.67981939 72.4557576 -54.47283493 69.98732117 -43.21466064 70.16586304 C-42.33411011 70.17319458 -41.45355957 70.18052612 -40.54632568 70.18807983 C-38.38751547 70.20711309 -36.22879846 70.23625438 -34.07012939 70.26742554 C-34.09107666 69.01719604 -34.11202393 67.76696655 -34.13360596 66.47885132 C-34.20649105 61.80107258 -34.25210432 57.12334315 -34.28985596 52.44515991 C-34.30986156 50.42782119 -34.337075 48.41053964 -34.37188721 46.3934021 C-34.42089517 43.47886981 -34.44320903 40.56510995 -34.46075439 37.65023804 C-34.48139954 36.76127838 -34.50204468 35.87231873 -34.52331543 34.9564209 C-34.5270037 24.45604326 -30.60399283 16.95873672 -23.44122314 9.46664429 C-16.53248359 3.05870298 -9.50142123 0.02593845 0 0 Z M-7.44512939 29.70492554 C-10.123248 33.92811257 -10.19630364 37.48234673 -10.20384216 42.43388367 C-10.20810715 43.69980347 -10.21237213 44.96572327 -10.21676636 46.27000427 C-10.21641685 47.67059329 -10.21595533 49.07118229 -10.21539307 50.47177124 C-10.21838568 51.9486703 -10.22178845 53.42556857 -10.22557068 54.90246582 C-10.23440524 58.91290582 -10.23674859 62.92332449 -10.23738647 66.93377328 C-10.23809737 69.44046707 -10.24023247 71.94715544 -10.24288368 74.45384789 C-10.25213584 83.2021761 -10.2562188 91.95048908 -10.25543213 100.69882202 C-10.25483161 108.847856 -10.2653786 116.99682373 -10.28117579 125.14584094 C-10.29426204 132.14640085 -10.29961556 139.14693914 -10.29897672 146.14751118 C-10.29872202 150.32669509 -10.30155777 154.50582013 -10.31215477 158.68499184 C-10.32185381 162.6174406 -10.32190257 166.54977445 -10.31463814 170.48222733 C-10.31359448 171.92253093 -10.31594214 173.36284176 -10.3219986 174.80313301 C-10.32975242 176.77541286 -10.32385913 178.74773207 -10.31736755 180.72001648 C-10.31791232 181.82189458 -10.31845709 182.92377268 -10.31901836 184.05904102 C-9.9266284 189.11727196 -9.31186587 193.08777589 -5.57012939 196.64242554 C-1.65801192 199.1853019 0.41121372 199.39574447 5.09033203 199.40786743 C6.40543259 199.41357758 7.72053314 199.41928772 9.07548523 199.4251709 C10.54159536 199.42641633 12.00770561 199.42754141 13.47381592 199.42855835 C15.01115539 199.43318549 16.54849371 199.43821001 18.08583069 199.44360352 C22.26986554 199.45674128 26.45388433 199.46317538 30.63793659 199.46761417 C33.25148295 199.47054324 35.86502489 199.47464777 38.47856903 199.47911835 C46.65420202 199.49279813 54.82982496 199.50246191 63.00546861 199.50632024 C72.44553626 199.51079957 81.88545901 199.5283396 91.32548261 199.55732083 C98.61982688 199.57893774 105.91413038 199.58902456 113.20850635 199.59036136 C117.56601447 199.59140956 121.92338648 199.59732039 126.2808609 199.61518097 C130.38157452 199.6316614 134.48204972 199.63381735 138.58278465 199.62504196 C140.08640112 199.62427152 141.5900304 199.62861534 143.09361458 199.63850021 C145.14985102 199.65122338 147.20524355 199.64534183 149.26147461 199.63491821 C150.4111182 199.63638477 151.5607618 199.63785133 152.74524307 199.63936234 C156.50204732 199.20060027 158.78215532 198.37144813 161.92987061 196.26742554 C164.75449213 192.03621258 165.3068777 188.65276878 165.31755066 183.62594604 C165.3229362 182.98393517 165.32832173 182.3419243 165.33387047 181.68045855 C165.34810344 179.5432332 165.3410584 177.40663131 165.33392334 175.26937866 C165.33962932 173.73144536 165.34659447 172.19351629 165.35472107 170.65559387 C165.37264098 166.4882626 165.37148651 162.32114201 165.36577868 158.1537838 C165.36268561 154.67208802 165.36878049 151.19043264 165.37481743 147.70874262 C165.38885676 139.49470812 165.38730587 131.28077764 165.37591553 123.06674194 C165.36443028 114.59718161 165.37851805 106.12793777 165.405312 97.65841913 C165.42747142 90.38095957 165.43410598 83.10359935 165.42823559 75.82610846 C165.42486593 71.48205324 165.42728181 67.13820099 165.44448662 62.79417419 C165.45995798 58.70973296 165.45599841 54.62576069 165.43718147 50.54133797 C165.43349631 49.04417574 165.43660201 47.54697874 165.44706726 46.04984856 C165.46028509 44.00232838 165.44872594 41.95635915 165.43107605 39.90890503 C165.43086677 38.76445671 165.43065748 37.62000839 165.43044186 36.44087982 C164.81132739 32.51590124 163.38796471 30.35678924 160.92987061 27.26742554 C156.29014723 24.17427662 152.12598501 24.14181287 146.64315796 24.12698364 C144.74221626 24.11841843 144.74221626 24.11841843 142.8028717 24.10968018 C141.40591441 24.10843499 140.008957 24.10730985 138.61199951 24.10629272 C137.13495256 24.10166139 135.65790681 24.0966363 134.18086243 24.09124756 C130.17461836 24.07815395 126.16839103 24.07168482 122.16212893 24.0672369 C119.65760735 24.06430191 117.1530903 24.06019635 114.64857101 24.05573273 C106.8077241 24.04206724 98.9668876 24.03239534 91.12602961 24.02853084 C82.08332294 24.02404904 73.04076734 24.00649155 63.9981066 23.97753024 C57.0017728 23.95590238 50.00548149 23.945826 43.00911462 23.94448972 C38.83326361 23.9434427 34.65755479 23.93755653 30.48173904 23.9196701 C26.55334235 23.90316974 22.62519448 23.90104336 18.69677544 23.90980911 C17.25807846 23.91057838 15.81936799 23.90625135 14.38070488 23.89635086 C2.36244773 23.58657651 2.36244773 23.58657651 -7.44512939 29.70492554 Z M-52.94512939 97.64242554 C-55.58322371 100.90124792 -56.19465728 102.35255298 -56.20714378 106.43233871 C-56.21221833 107.3104363 -56.21729287 108.18853389 -56.22252119 109.0932405 C-56.22301894 110.06384107 -56.2235167 111.03444164 -56.22402954 112.03445435 C-56.22841179 113.060985 -56.23279405 114.08751565 -56.2373091 115.14515328 C-56.25073363 118.60746197 -56.25688414 122.06974519 -56.26300049 125.53207397 C-56.27089853 128.0053621 -56.2791673 130.47864907 -56.28778076 132.95193481 C-56.31176704 140.39056654 -56.3269334 147.82919407 -56.33984083 155.26785123 C-56.34355206 157.36840666 -56.34752535 159.46896142 -56.35159349 161.56951618 C-56.37682945 174.60999583 -56.39888545 187.65047651 -56.41132164 200.69097519 C-56.4142514 203.71222691 -56.41721306 206.73347859 -56.42022705 209.75473022 C-56.4209731 210.50566028 -56.42171915 211.25659034 -56.42248781 212.03027585 C-56.43514269 224.19616957 -56.46836686 236.36191719 -56.51002888 248.52774259 C-56.55243976 261.0144729 -56.57601569 273.50112839 -56.5812422 285.98793054 C-56.58465732 293.00032113 -56.59642397 300.01248341 -56.62934494 307.02480316 C-56.66025982 313.62068306 -56.66576705 320.21623686 -56.65396118 326.81220245 C-56.65373975 329.23498517 -56.66210181 331.65778594 -56.67961502 334.08050537 C-56.70220454 337.3849748 -56.69405783 340.68798662 -56.6781311 343.99246216 C-56.69201319 344.95413984 -56.70589528 345.91581752 -56.72019804 346.90663695 C-56.66757581 351.32932023 -56.49344621 354.32860607 -53.65712929 357.84711075 C-49.71674837 361.53360576 -47.71433445 361.39575109 -42.38490295 361.41218567 C-41.68984561 361.41571251 -40.99478827 361.41923936 -40.27866858 361.42287308 C-37.93807141 361.4335897 -35.5975149 361.43724623 -33.25689697 361.44100952 C-31.58325019 361.44731267 -29.9096051 361.45407821 -28.23596191 361.46127319 C-24.6253526 361.47596193 -21.01474984 361.48767919 -17.40412331 361.49722099 C-11.69337032 361.51265387 -5.98267308 361.53660412 -0.2719574 361.56211853 C15.9695178 361.63336929 32.21102526 361.69306181 48.45257568 361.74423218 C57.41774027 361.7725532 66.38284973 361.80794652 75.34795648 361.85088593 C81.02274429 361.87763795 86.6974697 361.89555606 92.37230814 361.90692317 C95.90826432 361.91606358 99.44414495 361.93343273 102.98005676 361.95310211 C104.61707684 361.96056186 106.25411632 361.96465772 107.89115334 361.96509743 C110.13082663 361.96618452 112.37011822 361.9794729 114.60972595 361.99568176 C116.48766987 362.00202967 116.48766987 362.00202967 118.40355206 362.00850582 C122.17301431 362.28527835 125.36960979 363.00803714 128.92987061 364.26742554 C131.5380905 367.89625321 131.39580865 372.53270456 131.32440186 376.88851929 C130.71697214 380.55114003 128.83578103 382.12258689 125.92987061 384.26742554 C123.58048172 385.44211998 121.97913856 385.46777443 119.35955811 385.58383179 C118.46365967 385.62572632 117.56776123 385.66762085 116.64471436 385.71078491 C115.2389917 385.76975952 115.2389917 385.76975952 113.80487061 385.82992554 C112.85998779 385.87310913 111.91510498 385.91629272 110.94158936 385.96078491 C108.60449969 386.06701626 106.2673023 386.1690573 103.92987061 386.26742554 C99.92512876 394.73586936 96.41825239 403.37073258 92.99847412 412.08651733 C92.10595581 414.35898913 91.20662977 416.62869029 90.30682373 418.89828491 C89.73675657 420.34539078 89.16708015 421.79265065 88.59783936 423.24008179 C88.19482857 424.25558861 88.19482857 424.25558861 87.78367615 425.29161072 C86.39274476 428.67811682 86.39274476 428.67811682 85.92987061 432.26742554 C125.85987061 432.26742554 165.78987061 432.26742554 206.92987061 432.26742554 C206.05177634 427.87695421 204.80102467 424.01359246 203.16424561 419.88461304 C202.88897034 419.18852936 202.61369507 418.49244568 202.33007812 417.77526855 C201.74760072 416.31019795 201.16248551 414.84617364 200.57489014 413.38314819 C199.68222545 411.14832101 198.81198849 408.9055322 197.94158936 406.66195679 C197.37134566 405.23562669 196.7997752 403.80982618 196.22674561 402.38461304 C195.97132996 401.71582123 195.71591431 401.04702942 195.45275879 400.35797119 C193.70176855 396.09894129 192.09553875 394.20587674 187.92987061 392.26742554 C176.76582662 386.45076103 167.73312464 380.3010982 158.92987061 371.26742554 C158.17061279 370.51719116 157.41135498 369.76695679 156.62908936 368.99398804 C145.08392794 356.93321747 136.90410534 338.81101279 134.92987061 322.26742554 C134.79709717 321.18719116 134.66432373 320.10695679 134.52752686 318.99398804 C132.23889593 294.873361 138.06486046 270.85454466 153.17987061 251.64242554 C154.93813536 249.52547477 156.66992491 247.51449104 158.66424561 245.61898804 C160.15771059 244.33271967 160.15771059 244.33271967 159.92987061 242.26742554 C160.52026123 242.00187866 161.11065186 241.73633179 161.71893311 241.46273804 C163.98703113 240.2365225 165.46339158 238.93390966 167.30487061 237.14242554 C175.1296785 230.19826946 184.46935672 225.58709556 194.17987061 221.89242554 C194.80442139 221.65386841 195.42897217 221.41531128 196.07244873 221.16952515 C214.53059639 214.51236996 237.50564563 214.65027432 255.92987061 221.26742554 C256.98690186 221.64125366 258.04393311 222.01508179 259.13299561 222.40023804 C270.10881216 226.64984906 279.5136871 232.34947421 287.96893311 240.54476929 C289.74527338 242.48742109 289.74527338 242.48742109 291.92987061 242.26742554 C292.19541748 242.85781616 292.46096436 243.44820679 292.73455811 244.05648804 C293.96077365 246.32458606 295.26338649 247.80094651 297.05487061 249.64242554 C303.99902669 257.46723343 308.61020058 266.80691165 312.30487061 276.51742554 C312.54342773 277.14197632 312.78198486 277.7665271 313.027771 278.41000366 C319.96285693 297.63876379 319.01861532 320.17281195 312.56365967 339.35971069 C311.58626153 342.30169416 310.76492373 345.28230573 309.92987061 348.26742554 C317.13741791 357.85763232 317.13741791 357.85763232 327.81268311 362.30648804 C329.49596285 362.38563251 331.18237744 362.41462012 332.86737061 362.39242554 C333.67150391 362.38404663 334.47563721 362.37566772 335.30413818 362.36703491 C341.04757716 361.98841246 344.0819448 360.57945231 347.92987061 356.26742554 C350.06853471 350.55813864 350.21541883 345.2994085 350.19056702 339.24752808 C350.19439256 338.25418284 350.19821811 337.2608376 350.20215958 336.237391 C350.21245758 332.91727016 350.2085035 329.5973233 350.20452881 326.27719116 C350.20887699 323.89345642 350.2140605 321.50972308 350.22001648 319.12599182 C350.23201504 313.32863435 350.23455948 307.5313308 350.23221622 301.73396242 C350.23043118 297.02117865 350.23218666 292.30840892 350.23644066 287.59562683 C350.23733344 286.58846189 350.23733344 286.58846189 350.23824426 285.56095019 C350.23945604 284.19681004 350.24067018 282.8326699 350.24188664 281.46852976 C350.25275491 268.68516145 350.25060284 255.90181954 350.24450179 243.11844975 C350.23933114 231.42887738 350.25059324 219.7393883 350.26960001 208.0498324 C350.28897963 196.0386673 350.29723433 184.0275416 350.29347676 172.01636076 C350.29156517 165.27627539 350.29404828 158.53626095 350.3081913 151.79618835 C350.3207505 145.45962783 350.31884347 139.12323432 350.30578041 132.78667641 C350.3034111 130.46107744 350.30616196 128.13546678 350.31440353 125.80988121 C350.32484216 122.63550054 350.31679312 119.46168331 350.30409241 116.287323 C350.31146669 115.36698729 350.31884098 114.44665158 350.32643872 113.49842691 C350.26974633 106.76377762 349.45598815 101.92394221 344.64060688 96.85998917 C341.35469292 94.92950736 339.35600075 94.77386276 335.55809021 94.78640747 C334.27226547 94.78090881 332.98644073 94.77541016 331.66165161 94.76974487 C330.24413687 94.7838997 328.82662592 94.79843891 327.40911865 94.81332397 C325.91086355 94.81445272 324.41260623 94.81381806 322.91435242 94.81155396 C318.85260024 94.81040692 314.79132116 94.83391413 310.72967887 94.86184978 C306.48294207 94.88686542 302.23619426 94.88920556 297.98939514 94.89395142 C289.95003255 94.90638073 281.91088769 94.9392017 273.87162095 94.97934937 C264.71814282 95.02406849 255.56465426 95.04605447 246.41109407 95.06613111 C227.58389616 95.1079344 208.7569009 95.17828556 189.92987061 95.26742554 C189.92622498 96.48327835 189.92257935 97.69913116 189.91882324 98.951828 C189.88179103 110.44186925 189.82392844 121.93164452 189.74596786 133.42148304 C189.7065543 139.32774232 189.67433569 145.23385387 189.65887451 151.14022827 C189.6436678 156.84626716 189.60915059 162.55189974 189.56156158 168.25775719 C189.54678922 170.42846827 189.53883199 172.59923737 189.53798676 174.76999855 C189.52671691 189.20799057 189.48791441 202.19968306 178.92987061 213.26742554 C170.96258456 220.40715234 162.89609185 223.38102383 152.20777893 223.40786743 C151.54494343 223.41083855 150.88210793 223.41380968 150.1991865 223.41687083 C147.98545955 223.42551939 145.77178692 223.42706282 143.55804443 223.42855835 C141.96764003 223.4331893 140.37723673 223.43821433 138.78683472 223.44360352 C134.47048173 223.45670404 130.15414427 223.46316804 125.83777452 223.46761417 C123.1382484 223.47054907 120.43872649 223.4746547 117.7392025 223.47911835 C109.28485694 223.49278794 100.83052105 223.50245687 92.37616521 223.50632024 C82.63223691 223.5107979 72.88844909 223.52833452 63.1445635 223.55732083 C55.60296463 223.57897325 48.06140518 223.58902644 40.51977557 223.59036136 C36.02022214 223.59140696 31.52080087 223.59726237 27.02128029 223.61518097 C22.78508888 223.63172302 18.54912811 223.63378757 14.3129158 223.62504196 C12.76421298 223.62427482 11.21549744 223.62857137 9.66682625 223.63850021 C-3.48162192 223.71780609 -13.96955938 222.28641465 -24.07012939 213.26742554 C-31.04902191 205.08375578 -33.51903309 196.63515968 -33.50250244 186.08773804 C-33.51269409 185.1014592 -33.52288574 184.11518036 -33.53338623 183.09901428 C-33.56339915 179.86342603 -33.57276439 176.62813442 -33.58184814 173.39242554 C-33.59870347 171.13940455 -33.61685486 168.88639292 -33.63624573 166.63339233 C-33.68365884 160.72173994 -33.71352453 154.81012549 -33.73968506 148.89834595 C-33.76953434 142.85853586 -33.8160497 136.81885638 -33.86114502 130.77914429 C-33.94707937 118.94197314 -34.01446863 107.10477505 -34.07012939 95.26742554 C-36.48982497 95.20318583 -38.90780555 95.15614354 -41.32794189 95.11898804 C-42.01090332 95.09908813 -42.69386475 95.07918823 -43.39752197 95.0586853 C-47.2733821 95.01402712 -49.93213662 95.09311279 -52.94512939 97.64242554 Z M177.21112061 260.89242554 C164.73648856 273.87971369 157.95183278 291.32432942 157.92987061 309.26742554 C159.01720983 327.47541507 165.5679343 344.53576925 178.92987061 357.26742554 C195.72375447 371.37333649 212.65841617 376.72344883 234.39031982 375.49057007 C249.85664439 374.13157943 263.19496878 366.11318694 273.92987061 355.26742554 C274.62725342 354.60355835 275.32463623 353.93969116 276.04315186 353.25570679 C282.52309931 346.64993511 286.30209415 338.67232903 289.92987061 330.26742554 C290.31530029 329.37539429 290.70072998 328.48336304 291.09783936 327.56430054 C295.77199351 313.9587814 294.23252525 296.41601433 288.92987061 283.26742554 C288.52897217 282.2580896 288.12807373 281.24875366 287.71502686 280.20883179 C280.10163824 263.2386989 265.96140702 251.29073952 248.92987061 244.26742554 C223.03280031 235.54420186 196.91489402 242.43572639 177.21112061 260.89242554 Z M293.08221436 371.01742554 C291.9858667 372.13117554 291.9858667 372.13117554 290.86737061 373.26742554 C289.76715576 374.38117554 289.76715576 374.38117554 288.64471436 375.51742554 C287.7958667 376.38367554 287.7958667 376.38367554 286.92987061 377.26742554 C292.1602538 383.57507071 297.83224101 389.40374858 303.58612061 395.23226929 C304.0916597 395.74438021 304.59719879 396.25649113 305.11805725 396.78412056 C307.78643698 399.48485146 310.45871889 402.18166211 313.13348389 404.87606812 C315.33935326 407.09985011 317.53636017 409.33186994 319.72625732 411.57138062 C322.38482234 414.29006622 325.05775548 416.99379871 327.74168396 419.68744087 C328.75789671 420.7122054 329.76897192 421.74209183 330.77467346 422.777174 C332.17874507 424.22008716 333.60370954 425.64258036 335.02947998 427.0640564 C335.83300903 427.87789291 336.63653809 428.69172943 337.4644165 429.53022766 C340.52463564 431.68650637 342.26083341 431.70211491 345.92987061 431.26742554 C347.92987061 430.26742554 347.92987061 430.26742554 348.92987061 428.26742554 C349.45807824 424.3482289 349.29448313 422.76444914 346.92451477 419.53381348 C345.99192619 418.5808883 345.04259122 417.64417406 344.08050537 416.72103882 C343.56517242 416.20322342 343.04983948 415.68540802 342.51889038 415.15190125 C340.81700942 413.44910415 339.0947757 411.76862797 337.37127686 410.08773804 C336.18416539 408.90928211 334.99830392 407.72956578 333.81364441 406.54864502 C330.69547108 403.44768872 327.5592604 400.3655969 324.41937256 397.28665161 C321.85164648 394.76259932 319.29704759 392.22548765 316.74302769 389.6875782 C313.70670901 386.67081812 310.66491355 383.65961307 307.62127686 380.65023804 C307.0370804 380.07246738 306.45288395 379.49469673 305.85098457 378.89941788 C304.20645069 377.27576047 302.55829051 375.65589194 300.90863037 374.03744507 C299.96931168 373.11400299 299.02999298 372.19056091 298.06221008 371.23913574 C295.52476307 368.6413886 295.52476307 368.6413886 293.08221436 371.01742554 Z " fill="#FFCC66" transform="translate(110.07012939453125,27.732574462890625)"/>
<path d="M0 0 C2.72187538 2.65382849 3.80369038 4.41107113 5 8 C5 10.31 5 12.62 5 15 C10.94 15 16.88 15 23 15 C23 12.03 23 9.06 23 6 C25.3125619 2.02528424 27.47682456 -0.14292974 31.8125 -1.5625 C36.29599496 -2.40315531 40.16108893 -1.43443141 44 1 C46.80266922 3.97134839 47.42218109 6.21715254 47.6875 10.25 C47.75324219 11.14203125 47.81898438 12.0340625 47.88671875 12.953125 C47.94279297 13.96632813 47.94279297 13.96632813 48 15 C48.7734375 14.94199219 49.546875 14.88398437 50.34375 14.82421875 C57.68120688 14.50638337 62.40555493 15.08121255 68 20 C72.80072959 24.92706458 74.10594433 29.61976502 74.125 36.375 C74.09316134 37.91690094 74.05482724 39.45874525 74 41 C75.8253125 40.9071875 75.8253125 40.9071875 77.6875 40.8125 C81.62546709 40.83337262 83.92605282 41.36518813 87 44 C89.88868756 48.3828363 90.56796579 51.79364695 90 57 C88.09688482 61.54633071 85.33976986 63.74665796 81 66 C78.69 66 76.38 66 74 66 C74 71.94 74 77.88 74 84 C76.64 84 79.28 84 82 84 C85.10352458 85.60923497 87.21701424 87.00347267 89.375 89.75 C90.79173621 94.85025034 90.65773139 98.60560945 88.4375 103.3125 C85.50587748 106.54480176 83.14291198 107.691712 79 109 C77.33388883 109.04302726 75.66587286 109.05143347 74 109 C74.08701172 109.90878906 74.08701172 109.90878906 74.17578125 110.8359375 C74.55609051 117.89882375 73.25333639 123.2610485 69 129 C64.07485145 133.17775247 59.27795464 135.14646694 52.8125 135.0625 C51.91144531 135.05347656 51.01039063 135.04445312 50.08203125 135.03515625 C49.05142578 135.01775391 49.05142578 135.01775391 48 135 C47.97421875 135.59167969 47.9484375 136.18335938 47.921875 136.79296875 C47.54554526 142.0359263 46.98840916 145.23949994 43 149 C39.95564086 151.28326936 36.7939921 151.41859308 33.03125 151.3203125 C28.95674762 150.67779482 26.12245209 148.42857538 23.625 145.25 C23 143 23 143 23 135 C17.06 135 11.12 135 5 135 C5 137.31 5 139.62 5 142 C2.74665796 146.33976986 0.54633071 149.09688482 -4 151 C-9.20635305 151.56796579 -12.6171637 150.88868756 -17 148 C-20.57563204 143.82842929 -20.26653469 140.24184884 -20 135 C-20.6290625 135.03480469 -21.258125 135.06960937 -21.90625 135.10546875 C-28.60535465 135.31733802 -34.61619354 135.11310195 -39.7578125 130.3828125 C-44.27377059 125.29963262 -46.27567249 121.68093457 -46.125 114.75 C-46.10695313 113.67234375 -46.08890625 112.5946875 -46.0703125 111.484375 C-46.04710938 110.66453125 -46.02390625 109.8446875 -46 109 C-46.59167969 108.96261719 -47.18335937 108.92523438 -47.79296875 108.88671875 C-56.5348312 108.15941861 -56.5348312 108.15941861 -60 105 C-62.41063488 101.05201684 -63.41321493 97.39594371 -62.5625 92.8125 C-61.14292974 88.47682456 -58.97471576 86.3125619 -55 84 C-52.03 84 -49.06 84 -46 84 C-46 78.06 -46 72.12 -46 66 C-48.31 66 -50.62 66 -53 66 C-57.1030761 64.42189381 -59.92051317 62.94008031 -62 59 C-63.09527046 54.85361897 -63.1302189 52.45193619 -61.9375 48.3125 C-59.66612709 44.42918502 -58.06390632 42.91693694 -54 41 C-51.23652522 40.69626674 -48.79441699 40.80728159 -46 41 C-46.04640625 40.2265625 -46.0928125 39.453125 -46.140625 38.65625 C-46.37402879 31.92088361 -46.32472906 26.4310551 -42 21 C-36.92066074 16.38241886 -32.70237247 14.86341535 -25.8125 14.9375 C-24.18248047 14.95103516 -24.18248047 14.95103516 -22.51953125 14.96484375 C-21.68808594 14.97644531 -20.85664063 14.98804687 -20 15 C-20.0825 13.80375 -20.165 12.6075 -20.25 11.375 C-20.22599051 6.85321242 -19.09167504 4.40876992 -16 1 C-10.44357912 -2.48638173 -5.90614271 -2.54752384 0 0 Z M-21 40 C-21 63.1 -21 86.2 -21 110 C2.1 110 25.2 110 49 110 C49 86.9 49 63.8 49 40 C25.9 40 2.8 40 -21 40 Z " fill="#FFCC66" transform="translate(174,65)"/>
<path d="M0 0 C0.90763596 -0.0049649 1.81527191 -0.00992981 2.75041199 -0.01504517 C5.7570369 -0.02966584 8.76360903 -0.03646877 11.77026367 -0.04199219 C13.85910544 -0.04774387 15.9479472 -0.0535016 18.03678894 -0.05926514 C22.41905971 -0.06977496 26.80131214 -0.0756177 31.18359375 -0.07910156 C36.79588424 -0.08458519 42.40793199 -0.10861061 48.02014637 -0.13707352 C52.33616339 -0.15570776 56.65212204 -0.16090593 60.96817589 -0.16243744 C63.03700779 -0.16546288 65.1058387 -0.17348775 67.17463112 -0.18662262 C70.07103504 -0.20369878 72.96684726 -0.2017989 75.86328125 -0.1953125 C77.1423082 -0.20913467 77.1423082 -0.20913467 78.44717407 -0.22323608 C84.32012231 -0.18208664 88.5572782 0.72183757 92.97547913 4.91786194 C94.57918019 8.04546515 94.51446447 10.54485802 94.52978516 14.0534668 C94.53664841 14.73852295 94.54351166 15.4235791 94.55058289 16.12939453 C94.56885058 18.38888406 94.56501363 20.64767918 94.55932617 22.90722656 C94.56388817 24.48137131 94.5691938 26.05551407 94.57521057 27.62965393 C94.58414169 30.92741999 94.58171885 34.2249439 94.57177734 37.52270508 C94.56029011 41.74411002 94.58049456 45.96467816 94.60969448 50.18597317 C94.62806141 53.43656199 94.62776306 56.6869505 94.62205696 59.9375782 C94.62190379 61.49367509 94.62794465 63.04978559 94.64034843 64.60583305 C94.6552662 66.78422031 94.64457797 68.96106456 94.62744141 71.1394043 C94.62727524 72.37754379 94.62710907 73.61568329 94.62693787 74.89134216 C94.02712382 78.80444083 92.9242253 80.40363546 90.12573242 83.16113281 C87.33252145 84.82210175 85.27700574 85.41298299 82.04055786 85.42855835 C81.23597137 85.43708832 80.43138489 85.44561829 79.60241699 85.45440674 C78.72855347 85.45350037 77.85468994 85.45259399 76.9543457 85.45166016 C75.56341202 85.46173599 75.56341202 85.46173599 74.14437866 85.47201538 C71.07821294 85.49101701 68.01226586 85.49492067 64.94604492 85.49707031 C62.81379099 85.50349668 60.68153795 85.51022491 58.54928589 85.51724243 C54.07881628 85.52922058 49.60842398 85.53292269 45.13793945 85.53173828 C39.41235812 85.53153505 33.68727291 85.55883924 27.96180916 85.5932827 C23.55742114 85.61553096 19.15315291 85.61957646 14.74871445 85.61851883 C12.63801234 85.62087783 10.52730708 85.62971814 8.41666031 85.64518356 C5.46272384 85.6648014 2.50986236 85.65902178 -0.4440918 85.64697266 C-1.31390686 85.65821167 -2.18372192 85.66945068 -3.07989502 85.68103027 C-8.48414959 85.62507532 -11.60824091 84.79039004 -15.87426758 81.16113281 C-18.92063081 76.59158796 -18.99995497 72.50487745 -19.01953125 67.10498047 C-19.0259111 65.9066861 -19.03229095 64.70839172 -19.03886414 63.4737854 C-19.03997696 62.18725067 -19.04108978 60.90071594 -19.04223633 59.57519531 C-19.04545318 58.23147547 -19.04881757 56.88775598 -19.05232239 55.54403687 C-19.05829826 52.73149809 -19.06016388 49.91898998 -19.05957031 47.10644531 C-19.05946878 43.51662478 -19.073119 39.9270024 -19.09034252 36.33722878 C-19.10150444 33.56270458 -19.10348824 30.78822766 -19.10296059 28.01368332 C-19.10470213 26.05123172 -19.11551556 24.08879487 -19.12651062 22.12637329 C-19.09706316 10.59675264 -19.09706316 10.59675264 -16.87426758 5.16113281 C-11.64028997 0.06135975 -6.98691795 0.00909499 0 0 Z M6.12573242 25.16113281 C6.12573242 36.71113281 6.12573242 48.26113281 6.12573242 60.16113281 C27.24573242 60.16113281 48.36573242 60.16113281 70.12573242 60.16113281 C70.12573242 48.61113281 70.12573242 37.06113281 70.12573242 25.16113281 C49.00573242 25.16113281 27.88573242 25.16113281 6.12573242 25.16113281 Z " fill="#FFCB66" transform="translate(341.874267578125,135.8388671875)"/>
<path d="M0 0 C1.09339188 -0.00525696 2.18678375 -0.01051392 3.31330872 -0.01593018 C6.92060716 -0.02911309 10.52746284 -0.02039776 14.13476562 -0.01025391 C16.64530522 -0.01227512 19.15584425 -0.01518696 21.66638184 -0.01895142 C26.92525738 -0.02337246 32.1840182 -0.01723769 37.44287109 -0.00292969 C43.51302599 0.01339549 49.58287853 0.00810642 55.6530261 -0.0084089 C61.50499126 -0.02369015 67.35684197 -0.02203852 73.20881653 -0.0132637 C75.69350731 -0.0112633 78.17820581 -0.01371535 80.66288757 -0.02070236 C84.13614301 -0.02832598 87.60881894 -0.01669898 91.08203125 0 C92.10766678 -0.00607269 93.13330231 -0.01214539 94.1900177 -0.0184021 C99.54944862 0.02930317 103.44292593 0.31293628 108.04101562 3.38818359 C110.84270521 6.63224522 111.94538313 8.6231236 112.47851562 12.88818359 C111.89088382 17.58923801 110.77864667 20.89491728 107.1237793 24.03579712 C102.44062132 26.09026518 97.96451406 25.80538832 92.90429688 25.77636719 C91.21812759 25.78425262 91.21812759 25.78425262 89.49789429 25.79229736 C85.78295996 25.80549862 82.06845429 25.79675844 78.35351562 25.78662109 C75.77189044 25.78864178 73.19026581 25.79155318 70.60864258 25.7953186 C65.19834431 25.79974215 59.78820707 25.79359614 54.37792969 25.77929688 C48.128847 25.76297107 41.88005797 25.7682599 35.6309824 25.78477609 C29.61188777 25.80004585 23.59293646 25.79841007 17.57382202 25.78963089 C15.01573648 25.78762863 12.45764345 25.79008906 9.89956665 25.79706955 C6.32542015 25.80468212 2.75183875 25.79308163 -0.82226562 25.77636719 C-2.41054672 25.78547623 -2.41054672 25.78547623 -4.03091431 25.79476929 C-12.95564682 25.71738961 -12.95564682 25.71738961 -16.95898438 22.38818359 C-19.74534468 19.4618969 -20.37108015 17.46320965 -20.33398438 13.45068359 C-20.18762716 9.30389587 -19.83981926 6.55710196 -16.95898438 3.38818359 C-11.4499876 -0.24630272 -6.36694138 -0.03769807 0 0 Z " fill="#FFCC66" transform="translate(95.958984375,343.61181640625)"/>
<path d="M0 0 C1.60819862 -0.0076664 1.60819862 -0.0076664 3.24888611 -0.01548767 C6.79179472 -0.0293836 10.33450879 -0.02842678 13.87744141 -0.02612305 C16.34217399 -0.03001013 18.80690591 -0.03434482 21.27163696 -0.03910828 C26.43811209 -0.04657062 31.60451889 -0.04627919 36.77099609 -0.04101562 C43.3875517 -0.03522277 50.00382723 -0.05214778 56.62033653 -0.0753603 C61.71102531 -0.09010185 66.80164672 -0.09096871 71.89235306 -0.08785057 C74.33156514 -0.08836362 76.77078101 -0.09359836 79.20997238 -0.10366249 C82.62323886 -0.11601657 86.0359608 -0.1092407 89.44921875 -0.09765625 C90.45412857 -0.10529999 91.45903839 -0.11294373 92.49440002 -0.12081909 C98.94120829 -0.07252619 104.17039538 0.51553082 109.22900391 4.8996582 C111.25728371 9.18158223 112.19791559 13.76188746 110.65869141 18.3449707 C108.77331382 21.89304348 107.06621973 23.85595317 103.35400391 25.2746582 C101.0513401 25.53472042 101.0513401 25.53472042 98.47158813 25.54881287 C97.49030441 25.55878799 96.50902069 25.56876312 95.4980011 25.57904053 C94.42777206 25.5797052 93.35754303 25.58036987 92.25488281 25.58105469 C91.12276871 25.5893782 89.9906546 25.59770172 88.82423401 25.60627747 C85.07630998 25.63040189 81.32855988 25.63915239 77.58056641 25.64575195 C74.97748766 25.6547159 72.37440945 25.6638377 69.77133179 25.67311096 C64.31222891 25.69047138 58.85317041 25.69733588 53.39404297 25.70019531 C47.09092582 25.7038303 40.78829568 25.73372506 34.48532736 25.7755999 C28.41444838 25.81451406 22.34380589 25.82578861 16.27280807 25.82692146 C13.69319389 25.83113056 11.11357955 25.84359225 8.53404617 25.86443901 C4.92623659 25.89127625 1.3197723 25.88654945 -2.28808594 25.87402344 C-3.35426651 25.88885773 -4.42044708 25.90369202 -5.51893616 25.91897583 C-13.59966703 25.83903309 -13.59966703 25.83903309 -17.29336548 22.86219788 C-20.94800752 18.84264155 -21.04722974 16.11804188 -20.99365234 10.8215332 C-20.41936009 6.61435848 -18.79971634 5.07796508 -15.64599609 2.2746582 C-10.751659 -0.49844286 -5.46041757 -0.01340762 0 0 Z " fill="#FFCB67" transform="translate(96.64599609375,307.725341796875)"/>
<path d="M0 0 C4.22204601 2.32643352 5.47279903 4.55258629 7 9 C7.33548924 10.93039443 7.62539333 12.8691338 7.875 14.8125 C9.36973412 23.99443817 12.38511049 29.30920303 19.58203125 35.30859375 C24.90330441 39.03090599 30.43435773 39.92680706 36.75 40.875 C41.8140211 41.71191105 43.93262115 42.91016153 47 47 C48.85110583 50.70221166 48.46454795 54.95906917 48 59 C45.86887473 62.65335761 43.85998631 64.41018549 40 66 C26.63058245 67.69316637 12.91018421 62.90717619 2.26953125 54.9609375 C-9.33771624 45.02190258 -16.95147618 32.29632481 -18.2578125 16.9765625 C-18.49187826 10.65678696 -18.35486891 6.72814339 -14 2 C-9.54038458 -0.97307695 -5.22922586 -0.62015709 0 0 Z " fill="#FFCC66" transform="translate(300,324)"/>
<path d="M0 0 C1.17349503 -0.00428513 2.34699005 -0.00857025 3.55604553 -0.01298523 C6.03304399 -0.01871771 8.51005927 -0.01923678 10.98706055 -0.01489258 C14.76835954 -0.01173279 18.54887577 -0.035206 22.33007812 -0.06054688 C24.74088443 -0.06282004 27.15169284 -0.06352328 29.5625 -0.0625 C30.68873276 -0.07170975 31.81496552 -0.08091949 32.97532654 -0.09040833 C40.25889705 -0.04765792 45.78286132 0.31663882 51.22265625 5.61328125 C53.11332349 8.74015399 53.77445536 10.64073662 53.84765625 14.30078125 C52.22377861 19.53327585 50.40609101 22.29964272 45.84765625 25.30078125 C42.93299866 25.81544495 42.93299866 25.81544495 39.68383789 25.83422852 C38.46229507 25.85006485 37.24075226 25.86590118 35.98219299 25.88221741 C34.67064743 25.87725754 33.35910187 25.87229767 32.0078125 25.8671875 C30.63927285 25.87242679 29.27073681 25.87870439 27.90220642 25.88597107 C25.03822807 25.89636192 22.17474696 25.89183404 19.31079102 25.87719727 C15.65086921 25.86001835 11.99251873 25.88349723 8.33277225 25.91868687 C5.50758068 25.94071001 2.6827622 25.93920769 -0.14248848 25.93092155 C-2.14434536 25.92970891 -4.14617931 25.94959719 -6.14793396 25.96986389 C-16.2669189 25.86630964 -16.2669189 25.86630964 -19.96313477 22.88647461 C-23.40687712 18.81904122 -23.55640456 16.06454172 -23.49609375 10.84765625 C-22.92282691 6.60027009 -21.37501096 5.10310057 -18.15234375 2.30078125 C-12.35578218 -0.42353837 -6.2685321 -0.00506373 0 0 Z " fill="#FFCC67" transform="translate(99.15234375,271.69921875)"/>
<path d="M0 0 C1.38638672 -0.01740234 1.38638672 -0.01740234 2.80078125 -0.03515625 C8.10583922 -0.01238776 11.94448791 0.36179295 16.5 3.375 C19.30168958 6.61906162 20.4043675 8.60994 20.9375 12.875 C20.45282648 16.75238817 19.64879866 19.11475376 17.5 22.375 C12.05840559 26.32160583 7.05235726 25.85527318 0.5625 25.8125 C-0.50935547 25.83248047 -1.58121094 25.85246094 -2.68554688 25.87304688 C-8.91538091 25.86918939 -12.81886197 25.63969412 -17.5 21.375 C-20.3416328 17.11255081 -20.00403317 13.37532912 -19.5 8.375 C-18.18166756 4.93268752 -17.10797729 3.7716328 -14.0390625 1.76953125 C-9.27241586 -0.10871693 -5.07449289 -0.06369656 0 0 Z " fill="#FFCC66" transform="translate(187.5,126.625)"/>
</svg>
